<svg xmlns="http://www.w3.org/2000/svg" xmlns:xlink="http://www.w3.org/1999/xlink" viewBox="0 0 138.63 138.63"><defs><style>.cls-1{fill:url(#radial-gradient);}.cls-2{fill:#fff;}</style><radialGradient id="radial-gradient" cx="68.23" cy="74.76" fx="-14.013703645296658" r="195.94" gradientTransform="translate(-22.3 86.74) rotate(-49.2) scale(1 0.81)" gradientUnits="userSpaceOnUse"><stop offset="0" stop-color="#f9ed32"/><stop offset="0.05" stop-color="#f8d939"/><stop offset="0.17" stop-color="#f5a54d"/><stop offset="0.33" stop-color="#f0536c"/><stop offset="0.4" stop-color="#ee2a7b"/><stop offset="0.56" stop-color="#9e2aa7"/><stop offset="0.72" stop-color="#5b2acd"/><stop offset="0.85" stop-color="#2a2ae8"/><stop offset="0.95" stop-color="#0b2af9"/><stop offset="1" stop-color="#002aff"/></radialGradient></defs><title>Ресурс 1</title><g id="Слой_2" data-name="Слой 2"><g id="OBJECTS"><path class="cls-1" d="M138.63,69.32A69.32,69.32,0,1,1,69.32,0,69.31,69.31,0,0,1,138.63,69.32Z"/><path class="cls-2" d="M88.1,116.1H50.54A30.27,30.27,0,0,1,20.31,85.86V52.77A30.26,30.26,0,0,1,50.54,22.54H88.1a30.26,30.26,0,0,1,30.22,30.23V85.86A30.27,30.27,0,0,1,88.1,116.1ZM50.54,29.25A23.55,23.55,0,0,0,27,52.77V85.86a23.55,23.55,0,0,0,23.52,23.52H88.1a23.54,23.54,0,0,0,23.51-23.52V52.77A23.54,23.54,0,0,0,88.1,29.25Z"/><path class="cls-2" d="M69.32,96.23A26.91,26.91,0,1,1,96.23,69.32,26.94,26.94,0,0,1,69.32,96.23Zm0-47.11a20.2,20.2,0,1,0,20.19,20.2A20.22,20.22,0,0,0,69.32,49.12Z"/><path class="cls-2" d="M101.4,43.23a5.59,5.59,0,1,1-5.59-5.58A5.59,5.59,0,0,1,101.4,43.23Z"/></g></g></svg>