<svg xmlns="http://www.w3.org/2000/svg" viewBox="0 0 253.75 253.69"><defs><style>.cls-1{fill:#ee8108;}.cls-2{fill:#fff;}</style></defs><title>Ресурс 2</title><g id="Слой_2" data-name="Слой 2"><g id="Var2"><g id="Круги"><path class="cls-1" d="M126.81,253.69h.13A126.82,126.82,0,0,0,253.75,126.88h0A126.87,126.87,0,0,0,126.88,0h0A126.87,126.87,0,0,0,0,126.87H0A126.82,126.82,0,0,0,126.81,253.69Z"/></g><g id="Иконки"><g id="ok"><path class="cls-2" d="M126.38,130.57A35.67,35.67,0,1,0,90.71,94.91,35.7,35.7,0,0,0,126.38,130.57Zm0-50.43a14.77,14.77,0,1,1-14.77,14.77A14.78,14.78,0,0,1,126.38,80.14Z"/><path class="cls-2" d="M140.81,159.67a66.51,66.51,0,0,0,20.71-8.58,10.45,10.45,0,1,0-11.13-17.69,45.3,45.3,0,0,1-48,0,10.45,10.45,0,0,0-11.13,17.69,66.75,66.75,0,0,0,20.71,8.58L92,179.61a10.45,10.45,0,0,0,14.78,14.78l19.59-19.6L146,194.39a10.45,10.45,0,1,0,14.77-14.78Z"/></g></g></g></g></svg>