<svg xmlns="http://www.w3.org/2000/svg" viewBox="0 0 253.75 253.75"><defs><style>.cls-1{fill:#2565af;}.cls-2{fill:#fff;fill-rule:evenodd;}</style></defs><title>Ресурс 5</title><g id="Слой_2" data-name="Слой 2"><g id="Var2"><g id="Круги"><path class="cls-1" d="M126.81,253.75h.13A126.82,126.82,0,0,0,253.75,126.94v-.07A126.87,126.87,0,0,0,126.88,0h0A126.87,126.87,0,0,0,0,126.87v.07A126.82,126.82,0,0,0,126.81,253.75Z"/></g><g id="Иконки"><path id="vk_alt" class="cls-2" d="M122.15,176.83h9.62s2.9-.32,4.39-1.92,1.32-4.22,1.32-4.22-.19-12.91,5.8-14.81,13.49,12.47,21.52,18c6.08,4.17,10.7,3.26,10.7,3.26l21.49-.3s11.24-.7,5.91-9.53c-.44-.73-3.11-6.54-16-18.49-13.48-12.51-11.67-10.48,4.56-32.12,9.89-13.17,13.84-21.21,12.6-24.66-1.17-3.28-8.44-2.42-8.44-2.42l-24.2.16a5.43,5.43,0,0,0-3.12.55,6.8,6.8,0,0,0-2.14,2.59,139.86,139.86,0,0,1-8.94,18.87C146.47,130.07,142.16,131,140.4,129.9c-4.1-2.65-3.07-10.63-3.07-16.31,0-17.73,2.69-25.12-5.24-27-2.63-.64-4.57-1.06-11.29-1.13-8.64-.08-15.94,0-20.08,2.06C98,88.83,95.84,91.84,97.14,92c1.6.21,5.22,1,7.14,3.59,2.48,3.37,2.39,11,2.39,11s1.43,20.87-3.33,23.46c-3.26,1.78-7.73-1.85-17.34-18.45a153.68,153.68,0,0,1-8.63-17.9,7.21,7.21,0,0,0-2-2.69,10,10,0,0,0-3.71-1.5l-23,.14s-3.45.1-4.72,1.6c-1.12,1.34-.09,4.1-.09,4.1s18,42.11,38.39,63.34c18.69,19.46,39.91,18.18,39.91,18.18Z"/></g></g></g></svg>