<svg xmlns="http://www.w3.org/2000/svg" viewBox="0 0 1022.45 222.29"><defs><style>.cls-1{fill:#f58b1f;}.cls-2{fill:#717074;}</style></defs><title>Ресурс 1</title><g id="Слой_2" data-name="Слой 2"><g id="Слой_1-2" data-name="Слой 1"><path class="cls-1" d="M94.7,6.64C97,4.36,99.15,1.83,101.88,0c.16,10.08.21,20.15.28,30.23.39,9-2.81,17.83-7.31,25.52-2.85,5-7.31,8.69-11.28,12.73C72.9,79.38,62.13,90.19,51.16,100.79c-.21-6.51.25-13,.11-19.54.15-7.76-.65-15.7,1.47-23.27,2.31-7.89,5.95-15.62,11.88-21.44,10-9.95,20-19.95,30.08-29.9ZM15.21,64.38c7.36,7,14.45,14.19,21.75,21.2,8.4,7.91,13.27,19.28,14.28,30.68,0,18.54.12,37.08-.05,55.63-8.22-8.56-16.81-16.76-24.93-25.41a50,50,0,0,1-11.09-28.16c0-18-.07-36,0-53.94ZM0,171.39c11.44-.2,22.87-.36,34.31-.3a49.38,49.38,0,0,1,32,15.34q14.49,14.49,29,28.92a50.34,50.34,0,0,1,6.27,6.94H68.88c-11-1.57-22.34-5-30.57-12.87C25.52,196.76,12.87,184,0,171.39Z"/><path class="cls-2" d="M130.68,80.38c6.6-.41,13.22-.1,19.83-.19,12.25,30.37,24.71,60.65,36.94,91-6.56.14-13.13.13-19.7,0q-3.48-9.69-7.09-19.31c-13.17,0-26.33,0-39.5,0-2.27,6.4-4.72,12.74-6.77,19.21-6.83.33-13.68.1-20.52.15,12.14-30.35,24.76-60.52,36.81-90.91Zm-4.75,58.27c10,0,19.95,0,29.93,0C150.7,125.12,146,111.43,140.75,98c-5.39,13.38-9.85,27.14-14.82,40.69Zm67.63-32.41c-.1-13.33,11.48-25.43,24.78-26,10.93-.17,21.86,0,32.8-.05-1.68,4.3-3.49,8.56-5.18,12.86-8.32,1-16.72-.65-25,.57-6.06,1-10.15,6.56-11.2,12.31,10.21.37,20.43,0,30.65.19,9.88.33,18.54,9.17,18.54,19.08q0,13.53,0,27.07c0,9.84-8.61,18.81-18.49,19-9.38.07-18.76,0-28.15,0-9.91,0-18.89-9-18.72-18.94q-.1-23,0-46.1Zm21.05,13.42a6.38,6.38,0,0,0-4.61,6.68c0,8.28,0,16.57,0,24.85a6.39,6.39,0,0,0,6.31,6.9c6.69.09,13.4.12,20.09,0a6.27,6.27,0,0,0,6-6.72q.06-12.54,0-25.09c.35-3.38-2.46-6.91-6-6.74-7.26,0-14.64-.79-21.82.14ZM714,80.2c20.48,0,41,0,61.44,0-1.56,4.34-3.51,8.52-5,12.87-13.37.06-26.74.32-40.11.39,0,4.2-.06,8.4.08,12.59,8.68.1,17.36-.08,26,.07A27.12,27.12,0,0,1,780,122.64c3,6.83,1.91,14.43,2.08,21.66.48,14.69-12.91,27.86-27.61,27-13.49,0-27,0-40.46,0q0-45.56,0-91.1Zm16.28,39.4q0,19.23,0,38.48c6.38.12,12.76,0,19.15.08,5,.39,10.29-1.25,13.29-5.4,4.16-5.26,2.55-12.3,2.86-18.48a14.19,14.19,0,0,0-7-13.17c-4-2.39-8.8-1.5-13.21-1.64-5,.22-10.09-.75-15.09.13Zm-458.43,5.57c.08-9.87,8.66-18.68,18.52-19,13.28-.14,26.55,0,39.83-.05-1.53,4.36-3.43,8.57-5.05,12.89-6.24.45-12.49.43-18.73.48-4.78-.21-9.67-.74-14.35.49-3.23,1.34-4,5.18-3.85,8.31.09,7.71-.11,15.43.1,23.13,0,3.29,2.52,6.69,6,6.65,10.13.19,20.27.11,30.4,0,2.13,4.28,3.72,8.8,5.52,13.22-13.3,0-26.6.07-39.9,0-9.86-.2-18.39-9.08-18.48-18.89-.13-9.07-.11-18.14,0-27.2Zm82.75-18.7c9.91-.85,19.91-.16,29.86-.37s19.17,8.25,19.56,18.25c.1,9.34,0,18.68,0,28,0,9.87-8.72,18.77-18.6,18.9-9.35.07-18.71,0-28.06,0-9.94-.05-18.8-9-18.74-18.93q-.08-13.54,0-27.09c-.1-9,7.11-17.29,15.95-18.79Zm5.05,13.24c-2.9.64-4.76,3.76-4.57,6.62q0,12.49,0,25a6.46,6.46,0,0,0,6.39,6.77c6.65.08,13.32.11,20,0,3.48.07,6.31-3.39,6.17-6.75q0-12.56,0-25.11a6.81,6.81,0,0,0-7.15-7c-6.92-.15-13.94-.57-20.82.44ZM421,124.32c.38-9.53,8.8-17.78,18.3-18.15,13-.21,26.08,0,39.12-.11,1.49.11,3.12-.23,4.54.33.28,21.62,0,43.25.13,64.88-5.46.06-10.92,0-16.38,0,.1-17.21-.13-34.43.12-51.64-7.41-.63-15,.09-22.42-.16-3.88-.57-7.13,2.94-7.12,6.68-.23,8.71,0,17.45-.08,26.17.28,7.46-4.8,14.45-11.51,17.39-4.11,2-8.84,1.57-13.28,1.58,0-4.34,0-8.67.06-13,4.26.49,8.84-2.48,8.46-7.14.1-8.94-.1-17.88.06-26.82Zm79.57-18.27c5.42.32,10.92-.5,16.29.53-.23,7.82-.06,15.65-.11,23.47h13.51c-.45-6,.56-12.52,4.76-17.16a20.09,20.09,0,0,1,15.46-6.82c9,.08,18-.12,27,.1,9.47.43,17.84,8.67,18.2,18.18.11,9.29,0,18.58,0,27.87.09,9.84-8.47,18.74-18.3,19-9.34.11-18.69,0-28,0-8.79.06-16.87-6.69-18.67-15.23-.86-4.16-.34-8.43-.45-12.64-4.52,0-9,0-13.53,0,0,9.27,0,18.53,0,27.8q-8.26.15-16.51,0,0-26,0-52c.07-4.4-.26-8.82.31-13.2Zm50.23,13.79a6.3,6.3,0,0,0-4,6.39q-.06,12.55,0,25.1a6.28,6.28,0,0,0,5.8,6.72c5.61.26,11.22,0,16.84.12,2.71-.08,6,.35,8-1.94,2-1.74,1.76-4.52,1.81-6.89,0-7.38,0-14.75,0-22.13-.1-1.85.06-4-1.33-5.42-2.47-3.15-6.9-2.57-10.43-2.49-5.54.44-11.2-1-16.64.54Zm51.91-13.75c21.31.07,42.62-.1,63.91.08l1,.76c.17,4-.07,8,.13,11.95-4.39,1.4-9-.09-13.42.34-3.21.25-6.42.3-9.63.25V171.3H628.13q0-25.91,0-51.81c-4.57.13-9.12-.69-13.67-.13a21,21,0,0,1-6.89-.39c-1.39-4.39-3.54-8.48-4.88-12.88Zm197.64,0c13.37,0,26.73-.09,40.1,0,9.87.28,18.81,9.11,18.57,19.09v46c-15.2.05-30.4,0-45.6,0A19.56,19.56,0,0,1,794.61,158c-2.2-7.62-1.1-16.86,5.09-22.37,4.82-4.95,12.08-6,18.67-5.6,8.1,0,16.21,0,24.32,0-.1-3,.4-6.72-2.15-8.94-1.83-2-4.73-1.61-7.16-1.66-3.64.08-7.27-.43-10.9-.13-5.39.5-10.77-.48-16.16,0l-1.11-.85a100.18,100.18,0,0,1-4.88-12.41Zm12.47,38.55c-4.73,3.34-3.38,12.73,2.84,13.36,9,.31,18,0,27,.12,0-4.9,0-9.8,0-14.71-8.11,0-16.22,0-24.32,0-1.9,0-4-.1-5.53,1.26ZM876.21,107l1-.82c5.15-.23,10.31,0,15.47-.07.07,8,0,16,0,24h31.87c0-8-.07-16,.07-24,5.42,0,10.85.07,16.27-.07.41,21.74.06,43.51.18,65.26-5.51,0-11,0-16.51,0,0-9.29,0-18.58,0-27.87q-15.95,0-31.88,0,0,13.91,0,27.82c-5.52.05-11,.12-16.56-.07.08-21.4-.07-42.8.07-64.2Zm81.95-.06,1-.77c5.2-.22,10.41,0,15.62-.07.08,8,0,16,0,24,2-.11,4.07.32,6-.32,6.07-7.63,11.55-15.75,17.78-23.24,6.28-1,12.94-.17,19.38-.37-7.57,9.65-15.41,19.08-23.14,28.59-.53.83-2,2-.84,3,9.43,11.22,19.09,22.26,28.51,33.48-6.93.14-13.86.17-20.79,0-7-9.35-14.14-18.55-21.21-27.81l-5.67.06c0,9.27,0,18.54,0,27.81-5.56.06-11.12.09-16.68,0,0-21.43-.05-42.87,0-64.3Z"/></g></g></svg>