<svg xmlns="http://www.w3.org/2000/svg" viewBox="0 0 120.37 35.62"><defs><style>.cls-1{fill:#bc2c26;}</style></defs><title>Ресурс 1</title><g id="Слой_2" data-name="Слой 2"><g id="Слой_1-2" data-name="Слой 1"><path class="cls-1" d="M11.42,5.63,8.26,15.11h6.36L11.46,5.63ZM.35,30.87a.36.36,0,0,0-.35.36v4a.36.36,0,0,0,.35.36H22.52a.36.36,0,0,0,.35-.36v-4a.36.36,0,0,0-.35-.36ZM11.44,0c2.42,0,3.18,1.74,3.82,3.48L22,22a.37.37,0,0,1-.2.47l-3.68,1.42a.35.35,0,0,1-.45-.21c-.07-.18-1.43-3.94-1.58-4.36H6.77L5.19,23.66a.34.34,0,0,1-.45.21L1.06,22.45A.38.38,0,0,1,.85,22L7.61,3.48C8.22,1.76,9,0,11.44,0Z"/><path class="cls-1" d="M96.12,19.38c0-2-1.17-3.36-3.62-3.36a6.51,6.51,0,0,0-1.66.21V13.37a14,14,0,0,1,1.86-.11,20.74,20.74,0,0,1,2.43.14l0-1.66a16.88,16.88,0,0,0-3.25-.33,15.37,15.37,0,0,0-3.32.46V22.45a10,10,0,0,0,3.46.62c2.67,0,4.06-1.42,4.06-3.69Zm-2.25.16a1.59,1.59,0,0,1-1.68,1.78,4.53,4.53,0,0,1-1.35-.15V17.92a7,7,0,0,1,1.35-.1,1.52,1.52,0,0,1,1.68,1.72Z"/><path class="cls-1" d="M68,25.49V22.61a3.27,3.27,0,0,0,1.7.39c1.79,0,3.11-1.48,3.11-4.2,0-2.92-1.31-4.17-3.46-4.17A2.84,2.84,0,0,0,68,14.9V11.45h-2.1V14.9a2.8,2.8,0,0,0-1.34-.27c-2.15,0-3.46,1.3-3.46,4.22,0,2.72,1.18,4.15,3.1,4.15a3.24,3.24,0,0,0,1.7-.39v2.88Zm-4.73-6.64c0-1.61.48-2.46,1.45-2.46a2.25,2.25,0,0,1,1.18.24v4.43a2.83,2.83,0,0,1-1.08.17c-1.1,0-1.55-.9-1.55-2.38Zm7.37-.05c0,1.48-.59,2.43-1.56,2.43A2.89,2.89,0,0,1,68,21.06V16.63a2.3,2.3,0,0,1,1.19-.24c1,0,1.45.8,1.45,2.41Z"/><path class="cls-1" d="M50,22.86v-6.3a5.09,5.09,0,0,0-1.1-.1,5.17,5.17,0,0,0-1.11.1v2.91c0,2.34-.64,3.08-2.34,3.56l-.57-1.24a1.86,1.86,0,0,0,.7-.95,5.71,5.71,0,0,0,.13-1.75v-4a10.39,10.39,0,0,1,3.19-.49,10.52,10.52,0,0,1,3.21.49v7.73Z"/><path class="cls-1" d="M80.73,22.1A3.65,3.65,0,0,1,80,19.68V17.52a3,3,0,0,0-.44-2c-.43-.6-1.14-.86-2.46-.86a11,11,0,0,0-2.71.32l.31,1.55a12.13,12.13,0,0,1,1.66-.16c1.4,0,1.56.21,1.56,1.25V18a3.78,3.78,0,0,0-1.07-.15c-2.11,0-3.22,1-3.22,2.73a2.43,2.43,0,0,0,2.64,2.47,4.32,4.32,0,0,0,1.55-.28,4.22,4.22,0,0,0,.73-.42,2.16,2.16,0,0,0,.81.68l1.35-.93Zm-2.68-.93a3.19,3.19,0,0,1-1.14.2c-.75,0-1.18-.3-1.18-1.08s.54-1.07,1.58-1.07a2,2,0,0,1,.63.08v.57a5,5,0,0,0,.11,1.3Z"/><path class="cls-1" d="M104,22.1a3.64,3.64,0,0,1-.7-2.42V17.52a3,3,0,0,0-.45-2c-.43-.6-1.14-.86-2.46-.86a11,11,0,0,0-2.71.32L98,16.51a12.28,12.28,0,0,1,1.66-.16c1.39,0,1.56.21,1.56,1.25V18a3.78,3.78,0,0,0-1.07-.15c-2.11,0-3.22,1-3.22,2.73a2.43,2.43,0,0,0,2.64,2.47,4.32,4.32,0,0,0,1.55-.28,3.88,3.88,0,0,0,.73-.42,2.24,2.24,0,0,0,.81.68L104,22.1Zm-2.68-.93a3.19,3.19,0,0,1-1.14.2c-.75,0-1.18-.3-1.18-1.08s.54-1.07,1.59-1.07a1.94,1.94,0,0,1,.62.08v.57a5,5,0,0,0,.11,1.3Z"/><path class="cls-1" d="M53.74,14.77v7.67a8.13,8.13,0,0,0,3.07.62c2.24,0,3.44-1.16,3.44-3.07,0-1.73-1.06-2.8-3-2.8a5.21,5.21,0,0,0-1.36.2V14.77Zm4.32,5.32c0,.79-.28,1.33-1.29,1.33a2.76,2.76,0,0,1-.93-.12V19a3.51,3.51,0,0,1,.93-.12c1,0,1.29.47,1.29,1.23Z"/><polygon class="cls-1" points="109.6 22.86 109.6 19.59 107.21 19.59 107.21 22.86 105.1 22.86 105.1 14.84 107.21 14.84 107.21 17.87 109.6 17.87 109.6 14.84 111.71 14.84 111.71 22.86 109.6 22.86 109.6 22.86"/><path class="cls-1" d="M118.07,22.86s-.71-1.74-1.09-2.5-.42-.78-1-.78h-.29v3.27h-2.12v-8h2.12v3H116c.55,0,.65-.19.85-.61l.55-1.15a3.55,3.55,0,0,1,.56-.92,1.56,1.56,0,0,1,1.14-.48,5.38,5.38,0,0,1,1,0L120,16.19a.57.57,0,0,0-.49.12c-.21.18-.32.35-.68,1.14s-.72,1.06-1.16,1.15v0a1.89,1.89,0,0,1,1.26,1.22c.29.56,1.44,3,1.44,3Z"/><path class="cls-1" d="M37.65,18.78s.68-2.25.78-2.6c.27-.91.67-2.35.67-2.35h.07s.37,1.49.62,2.34c.1.33.74,2.61.74,2.61Zm4.09,4.08h2.43L40.5,11.64a4.4,4.4,0,0,0-1.38-.21,3.33,3.33,0,0,0-1.19.21L34,22.86h2.33l.69-2.2h4l.65,2.2Z"/><path class="cls-1" d="M85.65,18.85a1.35,1.35,0,1,1-2.69,0,1.35,1.35,0,1,1,2.69,0Z"/></g></g></svg>