<svg xmlns="http://www.w3.org/2000/svg" viewBox="0 0 181.7 25.5"><defs><style>.cls-1{fill:#1b0c00;}.cls-2{fill:#e3032e;}.cls-3{fill:#fff;}</style></defs><title>Ресурс 1</title><g id="Слой_2" data-name="Слой 2"><g id="Layer_1" data-name="Layer 1"><polygon class="cls-1" points="116.7 12.6 111 7.1 116.5 2 116.6 1.9 116.5 1.9 114 1.9 114 1.9 114 1.9 108.7 6.8 108.7 2 108.7 1.9 108.6 1.9 106.7 1.9 106.6 1.9 106.6 2 106.6 12.6 106.6 12.7 106.7 12.7 108.6 12.7 108.7 12.7 108.7 12.6 108.7 7.6 114 12.7 114 12.7 114 12.7 116.7 12.7 116.8 12.7 116.7 12.6"/><path class="cls-1" d="M45.2,10.9v-9H36.3V5.1c0,.6-.1,1.1-.1,1.7s-.1,1.1-.2,1.5-.2.9-.3,1.3a4.37,4.37,0,0,1-.6,1c-.2.2-.4.4-.6.4h-.7v1l.1,3h1.9l.1-2.2h8.9l.1,2.2h1.8l.2-3.1v-1ZM43.1,3.7v7.2H37.2A10.06,10.06,0,0,0,38,8.3a30.31,30.31,0,0,0,.4-4.6Z"/><path class="cls-1" d="M153.8,10.9v-9h-8.9V5.1c0,.6-.1,1.1-.1,1.7s-.1,1.1-.2,1.5-.2.9-.3,1.3a4.37,4.37,0,0,1-.6,1c-.2.2-.4.4-.6.4h-.7v1l.1,3h1.9l.1-2.2h8.9l.1,2.2h1.8l.2-3.1v-1Zm-2.1-7.2v7.2h-5.9a10.06,10.06,0,0,0,.8-2.6,30.31,30.31,0,0,0,.4-4.6Z"/><path class="cls-1" d="M48.3,1.9H58V3.7H50.4V6.2h6.5V8H50.4v2.9h7.8v1.8H48.3Z"/><path class="cls-1" d="M87.4,3.7H82.6V1.9H94.4V3.7H89.6v9H87.5v-9Z"/><path class="cls-1" d="M97.6,1.9H100l5.2,10.8h-2.1L102,10.2H95.8l-1.1,2.5H92.5Zm3.5,6.5L98.8,3.6,96.5,8.4Z"/><path class="cls-1" d="M130.8,1.9h9.7V3.7h-7.6V6.2h6.5V8h-6.5v2.9h7.8v1.8h-9.9Z"/><path class="cls-1" d="M168.3,12.7h-2V4.6l-7.5,8.1h-1.9V1.9h2V9.7l7.2-7.8h2.2V12.7Z"/><path class="cls-1" d="M174.7,3.7h-4.8V1.9h11.8V3.7h-4.8v9h-2.1v-9Z"/><path class="cls-1" d="M125.4,1.9h-6.7V12.7h2.1V9.1h4.6c2.4,0,3.9-1.3,3.9-3.5A3.57,3.57,0,0,0,125.4,1.9Zm.1,5.4h-4.6V3.8h4.6a1.71,1.71,0,0,1,1.8,1.9A1.76,1.76,0,0,1,125.5,7.3Z"/><path class="cls-1" d="M83.9,9c0-2.2-1.5-3.5-3.9-3.5H75.4V1.9H73.3V12.7H80A3.57,3.57,0,0,0,83.9,9ZM81.8,9A1.76,1.76,0,0,1,80,10.9H75.4V7.4H80A1.58,1.58,0,0,1,81.8,9Z"/><path class="cls-1" d="M62.1,1.9V3.7c0,1.7,0,3-.1,4.1a6.49,6.49,0,0,1-.6,2.5c-.1.2-.3.3-.4.4a.75.75,0,0,1-.5.1h-.8v1.8h1.1a2,2,0,0,0,1.1-.3,3.92,3.92,0,0,0,1-.8,5.23,5.23,0,0,0,.7-1.5A10.62,10.62,0,0,0,64,8.1c.1-.7.1-1.5.2-2.3V3.6h5v9h2.1V1.9Z"/><path class="cls-1" d="M39.6,17.2,36,21.7c-.4.5-.7,1-1,1.4V17.2H33.6v8h1.2l3.7-4.8c.3-.4.5-.7.7-1,.1-.1.2-.2.2-.3v6.2h1.4v-8H39.6Z"/><polygon class="cls-1" points="42.5 19.3 42.5 25.3 43.7 25.3 43.7 20.5 46.4 20.5 46.4 25.3 47.7 25.3 47.7 19.3 42.5 19.3"/><path class="cls-1" d="M51.7,19.2a2.89,2.89,0,0,0-2.9,3.1,2.9,2.9,0,0,0,5,2.2,3.29,3.29,0,0,0,.8-2.2A2.89,2.89,0,0,0,51.7,19.2Zm0,5c-1,0-1.6-.7-1.6-2s.6-1.9,1.6-1.9,1.5.7,1.5,1.9S52.7,24.2,51.7,24.2Z"/><polygon class="cls-1" points="55.3 19.3 55.3 20.5 57 20.5 57 25.3 58.3 25.3 58.3 20.5 59.8 20.5 60.2 19.3 55.3 19.3"/><path class="cls-1" d="M65.8,22.4c0-1.9-.9-3.1-2.5-3.1s-2.6,1.2-2.6,3.1a2.82,2.82,0,0,0,2.9,3.1,4.55,4.55,0,0,0,2-.5h0l-.4-.9h0a3.71,3.71,0,0,1-1.4.4c-1.1,0-1.7-.6-1.7-1.5v-.1h3.8v-.5ZM62,21.6a1.2,1.2,0,0,1,2.4,0v.1L62,21.6Z"/><polygon class="cls-1" points="77.3 19.3 77.3 21.8 74.6 21.8 74.6 19.3 73.4 19.3 73.4 25.3 74.6 25.3 74.6 22.8 77.3 22.8 77.3 25.3 78.6 25.3 78.6 19.3 77.3 19.3"/><path class="cls-1" d="M70.5,19.3v2.6a2.77,2.77,0,0,1-.9.1c-1.1,0-1.3-.3-1.3-1.1V19.2H67.1V21c0,1.4.7,2,2.4,2a5.38,5.38,0,0,0,1.1-.1v2.3h1.2V19.3Z"/><polygon class="cls-1" points="93.3 25.3 93.3 19.3 92 19.3 89.6 23.4 89.6 19.3 88.5 19.3 88.5 25.3 89.7 25.3 92.2 21.2 92.2 25.3 93.3 25.3"/><path class="cls-1" d="M92.7,16.9h-.8V17a.91.91,0,0,1-1,.8c-.6,0-.9-.2-1-.8v-.1h-.8V17a1.81,1.81,0,0,0,3.6,0Z"/><polygon class="cls-1" points="115.2 19.3 115.2 21.7 112.5 21.7 112.5 19.3 111.3 19.3 111.3 25.3 112.5 25.3 112.5 22.8 115.2 22.8 115.2 25.3 116.4 25.3 116.4 19.3 115.2 19.3"/><path class="cls-1" d="M100.9,20.4H98.7v-2h4.2V17.2H97.4v8h3.7a2.32,2.32,0,0,0,2.6-2.4C103.8,21.3,102.8,20.4,100.9,20.4Zm.1,3.7H98.7V21.6h2.1c1.2,0,1.7.3,1.7,1.3C102.4,23.7,102,24.1,101,24.1Z"/><path class="cls-1" d="M82.8,21.4H81.5V19.3H80.2v5.9h2.6a1.85,1.85,0,0,0,2.1-1.9A1.9,1.9,0,0,0,82.8,21.4Zm-.2,2.8H81.5V22.5h1q1.2,0,1.2.9C83.6,23.9,83.3,24.2,82.6,24.2Z"/><rect class="cls-1" x="85.6" y="19.3" width="1.2" height="5.9"/><polygon class="cls-1" points="119.3 25.3 119.3 22.9 121.2 25.3 122.8 25.3 120.2 22.2 122.6 19.3 121.1 19.3 119.3 21.7 119.3 19.3 118 19.3 118 25.3 119.3 25.3"/><path class="cls-1" d="M106.7,25.4a2.34,2.34,0,0,0,1.7-.7h0l.2.6h1.1a6.7,6.7,0,0,1-.1-1.7V21.3c0-1.4-.8-2.1-2.3-2.1a4.28,4.28,0,0,0-2.2.6h0l.5.9h0a2.93,2.93,0,0,1,1.6-.4,1.06,1.06,0,0,1,1.2,1.1v.2h-1a3.06,3.06,0,0,0-1.5.3,1.77,1.77,0,0,0-.9,1.6A1.69,1.69,0,0,0,106.7,25.4Zm-.2-2.7a2,2,0,0,1,.9-.2h.9v1.3h0a1.66,1.66,0,0,1-1.3.5.8.8,0,0,1-.9-.9A.75.75,0,0,1,106.5,22.7Z"/><rect class="cls-2" width="25.3" height="12.9"/><rect class="cls-1" y="12.6" width="25.3" height="12.6"/><rect class="cls-3" x="4.4" y="11.9" width="16.4" height="1.5"/></g></g></svg>