<svg xmlns="http://www.w3.org/2000/svg" viewBox="0 0 900 318.8"><defs><style>.cls-1{fill:#30454f;}.cls-2{fill:#8cc541;}</style></defs><title>Ресурс 1</title><g id="Слой_2" data-name="Слой 2"><g id="Слой_1-2" data-name="Слой 1"><polygon class="cls-1" points="290.6 0 290.6 0.1 262.5 28.2 262.5 0 234.3 0 234.3 0 234.3 0 187.5 46.9 187.5 168.8 206.2 168.8 206.2 56.3 243.7 18.8 243.7 168.8 262.5 168.8 262.5 56.3 299.9 18.8 299.9 168.8 318.7 168.8 318.7 0 290.6 0"/><path class="cls-1" d="M56.2,18.8V150H18.7V56.3ZM0,168.8H75V0H46.9L0,46.9H0Z"/><path class="cls-1" d="M112.5,18.8H150V150H112.5V18.8ZM168.7,0h-75V168.7h75Z"/><rect class="cls-1" y="187.5" width="318.7" height="18.8"/><path class="cls-1" d="M112.5,281.3H18.8V243.8h93.7ZM0,225v93.7H18.8V300H131.2V225Z"/><path class="cls-1" d="M299.9,281.3H243.7V243.8h56.2ZM168.7,243.8h56.2v37.5H168.7ZM150,225v75h75v18.7h18.7V300h75V225Z"/><path class="cls-1" d="M614.1,173H597.7v23.2h16.4c7.3,0,11.7-4.6,11.7-11.6,0-6.8-4.3-11.6-11.7-11.6m.9,37.9H581.3V126.5H637v14.7H597.8v17.1h17.3c16.9,0,27.3,10.9,27.3,26.3S632,210.9,615,210.9"/><path class="cls-1" d="M692.9,151.5l-10.7,30.7h21Zm19.6,59.4-5-14.9H677.6l-5.1,14.9H655.4L686,126.5h12.9l30.7,84.4Z"/><polygon class="cls-1" points="791.8 210.9 791.8 175.6 763.3 175.6 763.3 210.9 746.9 210.9 746.9 126.6 763.3 126.6 763.3 161.1 791.8 161.1 791.8 126.6 808.2 126.6 808.2 210.9 791.8 210.9"/><polygon class="cls-1" points="834 210.9 834 126.6 850.4 126.6 850.4 166.6 877.6 126.6 897.2 126.6 868.9 166.2 900 210.9 879.9 210.9 850.4 166.9 850.4 210.9 834 210.9"/><rect class="cls-2" x="449.9" y="0.1" width="18.7" height="318.7"/></g></g></svg>