<svg xmlns="http://www.w3.org/2000/svg" viewBox="0 0 1674.82 180.55"><defs><style>.cls-1{fill:#00337f;}</style></defs><title>Ресурс 1</title><g id="Слой_2" data-name="Слой 2"><g id="Слой_1-2" data-name="Слой 1"><path class="cls-1" d="M1596.86,33l28.22,0,.13,40.24L1644.69,33h29.16l-25,52.29,26,60.32-29.21,0-12.71-30-7.63-17.35-.19,47.36-28.24,0,0-112.62Zm-98.28,0h28.5l0,42.78,21.21,0,0-42.77h28.29V145.57l-28.25.05,0-41.5-21.19,0,0,41.51h-28.55l0-112.61ZM1439.71,79.5l-7.29,26.93h14.09l-6.8-26.93Zm-16.14-46.44,32.51-.09,28,112.55-28,.07L1452,129.68l-24.39-.21-4.15,16.12-27.94,0,26.29-106,1.81-6.56Zm-82.76,69.17c0,5.33,0,10.67,0,16,4.06-.32,9,1.22,12.33-1.86a10.76,10.76,0,0,0,.28-11.81c-3.11-3.7-8.43-2.09-12.61-2.33ZM1312.31,33c21.94,0,43.88,0,65.82,0-.05,7.89,0,15.77,0,23.66-12.41,0-24.81.05-37.21,0-.15,6,0,12.06-.09,18.1,7.73.38,15.53-.54,23.22.66,8.3,1.55,15.08,7.79,18.76,15.2,3.53,7.31,4,15.68,3.43,23.65-.7,9-3.89,18.19-10.64,24.44a24.92,24.92,0,0,1-17.27,6.87c-15.34,0-30.68,0-46,0q0-56.29,0-112.6Zm-79.94,0h62.5l0,30.65h-17l0,82h-28.52l0-82h-17l.06-30.63ZM1083.6,33h56.85l0,28.29h-28.61l.08,14.55,28.24,0-.06,28.25h-28.26l0,13.48,28.61,0v28l-56.88,0,0-112.57Zm-61.33,67.13c-.08,5.49,0,11,0,16.46,4.24-.39,9.73,1.41,12.89-2.33,2.19-3.45,2.32-8.64-.39-11.83-3.24-3.4-8.3-2-12.45-2.3Zm0-42.79c0,5.37,0,10.75,0,16.12,3.31-.08,7.67.88,9.88-2.3a12.08,12.08,0,0,0,.07-11.3c-2.12-3.38-6.58-2.34-9.91-2.52ZM993.7,33c14.78.07,29.55-.05,44.33.06a22.89,22.89,0,0,1,18.74,10.2c5,7.51,5.9,17,4.94,25.79-.56,6.65-3.29,13.88-9.7,16.9,4.84,2,9.39,5,12.23,9.49,5,7.95,5.2,17.89,3.83,26.91-1.14,7.52-4.84,15-11.44,19.16-5.4,3.59-12.09,4.25-18.41,4.1H993.69q0-56.29,0-112.61Zm-97.61,0,28.2,0V75.8h21.52V33h28.28V145.55H945.78l.05-41.41-21.57,0,0,41.42-28.22,0,0-112.62ZM792.31,33H820.5l.13,54.11L848.82,33h26.64V145.6H846.92L846.86,94l-26.36,51.6-28.2,0V33Zm-73.83,0,38.79,0L780.09,145.6l-28.55,0-12.09-83h-2.54L724.52,145.6H696.27L718.48,33Zm-92.21,0,39.46,0,22.48,112.61H659.69L647.36,61.69l-2,.05-12.67,83.87-28.25,0L626.27,33Zm-74,45.66L545,107.08H559.1l-6.79-28.45ZM535.7,33h33l27.91,112.63-27.87,0-4.54-16.16-24.1.06L536,145.61l-28.27-.07L535.7,33ZM434.88,33h62.25V63.61l-17,0-.07,82H451.58l0-82-16.72,0,0-30.63Zm-72.31,0h56.85l0,28.26-28.61.05,0,14.47,20.29.11,0,28.22H390.84l0,13.48,28.62,0v28H362.56V33ZM255,33h29.17l10.74,49.24L306.06,33h28.21l16.07,112.61-28.24,0-7-56.39-11.67,56.4h-16L274.69,89.26l-7.87,56.37H238.75l4.66-33.07L255,33Zm929.11,4c7.6-4.12,16.43-5.33,25-5a37,37,0,0,1,8.12,1.58q0,19.1,0,38.17a24.28,24.28,0,0,0-17.31-1.65c-5.48,1.8-8.77,7.22-9.69,12.67-1.44,7.91-.55,17.19,5.47,23.09,3.3,3.29,8.26,3.6,12.66,3.42a25.55,25.55,0,0,0,8.86-2.2c0,12.83,0,25.67,0,38.51-3.6,1.23-13.73,1.49-17.91,1a41.73,41.73,0,0,1-22-9.37c-10.92-9.35-17.18-23.27-18.8-37.4-1.72-14.78-.14-30.43,7.15-43.62,4.34-7.87,10.51-14.95,18.52-19.2Z"/><path class="cls-1" d="M72.35,53.38a2.75,2.75,0,0,0-.62,4.72c1.71,1.46,4.85.22,4.82-2.12.14-2.09-2.41-3.5-4.2-2.6ZM82.59,0h3.55c0,8.49.16,17,.08,25.47A64.85,64.85,0,0,0,40.07,131.21,67.91,67.91,0,0,0,49.88,141q12.33-32.32,24.59-64.69c-6.29,0-12.57.15-18.85,0-3.38-.27-5.26,3-7.55,4.87,0-4.8-.56-9.72.76-14.41,1.21-5.3,2.56-10.89,6.25-15.07,4.26-4.41,10.64-6.23,16.65-5.84,16.68-.1,33.36-.24,50-.31-2.55,2.78-5.2,5.47-7.79,8.21q9.47,42.8,18.94,85.6a65,65,0,0,0-38.75-114q.12-12.7.27-25.41H99A90.47,90.47,0,1,1,48.8,170.32,91.3,91.3,0,0,1,8.14,127.53,90.6,90.6,0,0,1,82.59,0Z"/></g></g></svg>