<svg xmlns="http://www.w3.org/2000/svg" viewBox="0 0 637.63 162.34"><defs><style>.cls-1{fill:#910d12;fill-rule:evenodd;}</style></defs><title>Ресурс 1</title><g id="Слой_2" data-name="Слой 2"><g id="_1" data-name="1"><path class="cls-1" d="M0,8.78c6.15,0,12.3,0,18.45,0q0,67.35,0,134.72h36c.29-.84.58-1.69.86-2.53s.59-1.83.92-2.72a26,26,0,0,1,.94-2.74c0-.19.13-.57.17-.77.26-.64.48-1.31.71-2,.27-.93.59-1.83.91-2.74.47-1.54,1-3.06,1.51-4.6.32-.9.65-1.81.9-2.73s.65-1.81.92-2.73.65-1.8.9-2.73c.22-.61.42-1.23.66-1.84a21.4,21.4,0,0,1,.93-2.73c.07-.31.13-.61.2-.91.25-.6.46-1.23.72-1.83l.18-.88c.26-.61.47-1.25.73-1.86,0-.22.14-.65.19-.86.6-1.5,1-3.06,1.59-4.57.27-.92.58-1.83.91-2.73a26,26,0,0,1,.94-2.74c0-.19.13-.56.17-.75.41-1,.72-2.11,1.1-3.16.93-3,2-5.92,2.93-8.91.33-.9.65-1.81.9-2.74s.66-1.79.93-2.7.62-1.81.88-2.73a24.43,24.43,0,0,0,.91-2.74c.24-.62.46-1.25.7-1.87.06-.28.13-.56.19-.84.26-.62.47-1.25.72-1.87l.2-.86c.25-.61.46-1.24.69-1.85a22.09,22.09,0,0,1,.93-2.74l.2-.86c.24-.61.45-1.23.68-1.85.26-.92.58-1.81.91-2.71.12-.4.25-.81.38-1.21.29-.91.59-1.82.92-2.71.92-3,2-5.93,2.93-8.91.32-.9.65-1.8.91-2.72s.66-1.81.91-2.74c.22-.61.43-1.23.68-1.83.06-.31.12-.61.19-.92a15.3,15.3,0,0,0,.94-2.82c7.82-.12,15.64,0,23.45-.05,4.71,0,9.41,0,14.11,0q.12,52.14,0,104.27c-15.34.07-30.69,0-46,0,1.08-4.11,2.69-8.06,3.89-12.13.63-1.84,1.31-3.67,1.8-5.55.18-.31.37-.62.56-.93,7.06,0,14.12,0,21.18,0,0-22.29,0-44.59,0-66.87a13.92,13.92,0,0,0-5.42,0c-.16.56-.32,1.12-.5,1.67-.62,1.82-1.21,3.64-1.83,5.46-.28.91-.6,1.82-.91,2.72s-.6,1.83-.91,2.74-.59,1.8-.92,2.7-.59,1.85-.91,2.76c-.57,1.84-1.21,3.66-1.82,5.49-1.1,3.35-2.25,6.67-3.32,10-.32.9-.63,1.8-.91,2.72-.61,1.82-1.24,3.64-1.82,5.47-1.46,4.25-2.84,8.53-4.28,12.78-2,6.08-4.06,12.15-6.06,18.24-.32.9-.62,1.82-.9,2.73s-.64,1.8-.91,2.72c-.23.62-.44,1.24-.68,1.86,0,.22-.15.66-.21.88-.24.6-.46,1.22-.71,1.82-.07.3-.13.61-.2.92-.25.59-.46,1.2-.69,1.8a24.53,24.53,0,0,1-.9,2.75c-.55,1.85-1.2,3.66-1.8,5.49-1.71,5.25-3.55,10.47-5.2,15.74l-.4.51c-22.64-.11-45.29,0-67.93,0Q0,85.41,0,8.78Zm24.42,0q0,64.36,0,128.73c8.62,0,17.24,0,25.86,0a16.42,16.42,0,0,0,.74-2.07c.32-.9.64-1.81.89-2.73s.66-1.8.92-2.73c.22-.61.42-1.22.67-1.82.06-.23.16-.67.21-.89.23-.61.44-1.23.69-1.83.26-.92.56-1.83.91-2.73s.56-1.84.9-2.74.58-1.83.92-2.72c1.36-4.28,2.84-8.53,4.22-12.8.33-.9.63-1.81.89-2.73s.66-1.82.92-2.75.65-1.8.9-2.72.65-1.79.91-2.71c.57-1.51,1-3.07,1.58-4.58a18.6,18.6,0,0,1,.94-2.72l.21-.9c.39-1,.7-2,1-3,1.87-5.7,3.8-11.39,5.68-17.1.31-.9.61-1.81.89-2.73.64-1.81,1.24-3.64,1.82-5.47.34-.9.65-1.81.91-2.73.23-.62.44-1.24.68-1.85.06-.22.16-.65.22-.87.24-.61.45-1.23.67-1.84a27.3,27.3,0,0,1,.91-2.73c.27-.91.57-1.82.91-2.71,1.86-5.72,3.78-11.41,5.68-17.11q1.41,0,2.82,0,3.18-.06,6.38,0c12.36-.09,24.73,0,37.09,0,.49,0,1.4-.09,1.29.66,0,38.49,0,77,0,115.48l-1,.12c-17.7.06-35.4-.07-53.1.06a19.35,19.35,0,0,0-1,2.89c-.23.61-.44,1.23-.67,1.84-.28.91-.57,1.82-.9,2.72s-.57,1.84-.94,2.74c0,.18-.12.56-.17.74-.25.66-.47,1.33-.74,2,0,.19-.13.56-.17.75-.26.65-.47,1.31-.7,2-.32,1-.63,1.9-.91,2.87q39.39,0,78.79,0,0-76.63,0-153.26c-26.59-.07-53.18,0-79.77,0-.84,2.31-1.58,4.66-2.36,7-.63,1.81-1.22,3.64-1.81,5.47-.32.9-.64,1.81-.91,2.73s-.64,1.81-.91,2.73-.64,1.81-.91,2.74c-.22.6-.43,1.22-.65,1.82A19.9,19.9,0,0,1,65,34c-.06.31-.13.62-.19.93-.63,1.47-1,3-1.61,4.52-.57,1.84-1.19,3.67-1.81,5.49C59.12,51.62,57,58.34,54.67,65c-.26.92-.56,1.83-.91,2.73s-.56,1.83-.91,2.72c-.58,1.83-1.18,3.66-1.82,5.47a15.32,15.32,0,0,1-1,2.71c0,.17-.08.52-.11.7-.28.68-.5,1.37-.75,2.06-.12.39-.23.78-.35,1.17s-.36,1-.56,1.56a25.67,25.67,0,0,1-.92,2.68c-.61,2.1-1.41,4.13-2,6.23-.46,1.28-.87,2.57-1.29,3.85a6.35,6.35,0,0,1-.76,1.89c-.06.44-.17.88-.27,1.32-.14-3,0-6-.07-9Q43,50,43,8.82c-6.19-.07-12.38-.06-18.57,0ZM505.24,1a8.58,8.58,0,0,1,0-1c1.89,0,3.79,0,5.68,0a3.48,3.48,0,0,0,1.85,2.31,11.64,11.64,0,0,0,2.77.06,5.35,5.35,0,0,0,2-2.39c1.9,0,3.81,0,5.71,0a8.52,8.52,0,0,1-5.91,6.84,11.39,11.39,0,0,1-5.41.17,8.21,8.21,0,0,1-6.68-6ZM226.44,8.87a23.29,23.29,0,0,1,9.73,0A19.46,19.46,0,0,1,249.7,21c1.33,3.41,1.08,7.15.82,10.73-.35,1-.63,2-1,3l-.68,1.5a19.22,19.22,0,0,1-9.72,9.13l-.56.21A29.41,29.41,0,0,1,231.29,47,30.24,30.24,0,0,1,225,45.92c-.54-.16-1.07-.35-1.6-.55a19.43,19.43,0,0,1-11-12.73,18.6,18.6,0,0,1-.31-8.06,20,20,0,0,1,1.22-4.42c.32-.61.61-1.24.89-1.86a19.78,19.78,0,0,1,7.66-7.63,27,27,0,0,1,4.59-1.8Zm-.3,7.37a13.2,13.2,0,0,0-6.14,6,18.68,18.68,0,0,0-1,3.11,31.67,31.67,0,0,0,0,4.87c.25.69.46,1.4.69,2.1a12.32,12.32,0,0,0,9.11,7.48c2.39.06,4.91.37,7.16-.65a12.31,12.31,0,0,0,7.19-7.74c.17-.9.45-1.79.58-2.71a12.49,12.49,0,0,0-7.31-12.45l-1.84-.7a12.72,12.72,0,0,1-1.83-.31,13.68,13.68,0,0,0-6.68,1ZM256,19.8c2.42-5.75,7.66-10.28,13.78-11.16a18.46,18.46,0,0,1,14.36,3.2,19,19,0,0,1,6.05,7.84c-2.46.09-4.92,0-7.38,0-.61.06-.91-.57-1.3-.92A11.17,11.17,0,0,0,273,15.16,13.59,13.59,0,0,0,268,16.47a12.75,12.75,0,0,0-5.4,5.5,12.75,12.75,0,0,0-1.06,7.62c.78,5.85,6.25,10.86,12.12,10.3a9.86,9.86,0,0,0,8.45-4.1c2.63,0,5.27,0,7.9,0a18.06,18.06,0,0,1-11.55,10.42,20.74,20.74,0,0,1-6.6.74A18.72,18.72,0,0,1,262,43.27a20,20,0,0,1-6.78-10.05,21.41,21.41,0,0,1-.71-8.2A29.29,29.29,0,0,1,256,19.8Zm74-9.13a20.4,20.4,0,0,1,6.11-2.05,22.5,22.5,0,0,1,8.22.24,19.38,19.38,0,0,1,12.74,27.39,19.24,19.24,0,0,1-12.46,10c-1.19.35-2.45.39-3.65.67a20.6,20.6,0,0,1-13.23-3.81,19.7,19.7,0,0,1-6.33-8A21.67,21.67,0,0,1,320,26.85a22.38,22.38,0,0,1,1.67-6.93,19.45,19.45,0,0,1,8.42-9.25Zm4.69,5.44a12.34,12.34,0,0,0-7.33,8.63,12.77,12.77,0,0,0,2.37,10.64c1.7,2,4,3.85,6.68,4.17l-.59.13c1.8.18,3.62.64,5.42.24a12.36,12.36,0,0,0,9.43-6.68,12.8,12.8,0,0,0,.61-9.77,12.46,12.46,0,0,0-8.47-7.91,11.53,11.53,0,0,1-1.85-.31,13.17,13.17,0,0,0-3,0,16.66,16.66,0,0,0-3.26.86Zm69.88-7.32V8.73c1.61.15,3.16-.47,4.78-.37A18.29,18.29,0,0,1,421.25,12a18.57,18.57,0,0,1,6,7.74c-2.65.09-5.29,0-7.94,0a11.91,11.91,0,0,0-7.19-4.34,11.51,11.51,0,0,0-5.82.36,12.4,12.4,0,0,0-8.11,8.38,12.59,12.59,0,0,0,1.45,10.08,12.83,12.83,0,0,0,7.29,5.48,12.38,12.38,0,0,0,8-.67,10.88,10.88,0,0,0,4-3.23c2.7,0,5.4,0,8.1,0a18.62,18.62,0,0,1-7,8.32A19.91,19.91,0,0,1,408.47,47c-1.26-.3-2.58-.31-3.82-.69a18.28,18.28,0,0,1-10.83-8.08,25.86,25.86,0,0,1-2.11-4.33c-.39-1.2-.57-2.46-.92-3.67a21.26,21.26,0,0,1,.28-6.47c1.4-6.88,6.69-13.14,13.68-14.7,0-.06-.09-.18-.13-.24ZM169,9c3.11,0,6.22-.06,9.32,0a6.32,6.32,0,0,1,.71,1.67c.86,2.66,1.87,5.26,2.7,7.93,1.18,3.2,2.24,6.45,3.39,9.67.36,1.13.78,2.24,1.15,3.38.66,1.72,1.14,3.51,1.88,5.2.27-.93.54-1.85.85-2.76,1.05-3,2-5.93,3.07-8.89.22-.61.43-1.23.69-1.82l.21-.86c.26-.6.47-1.21.69-1.81.32-1.14.79-2.23,1.13-3.36,1-2.72,1.9-5.46,2.82-8.2l.19-.16c3.13-.08,6.26,0,9.39,0,0,12.36.07,24.72,0,37.07-2.34,0-4.67,0-7,0-.06-8.46,0-16.91,0-25.37,0-.49-.06-1-.1-1.47l-.6,1.81c-1.28,4-2.68,7.91-4,11.89-.86,2.39-1.59,4.84-2.49,7.23-.62,2-1.27,4-2,5.91-1.91,0-3.82,0-5.72,0a24.48,24.48,0,0,1-1.39-3.78c-.81-2.34-1.6-4.68-2.35-7-.57-1.51-1-3.05-1.61-4.54l-.2-.86c-.24-.61-.45-1.23-.69-1.83a16.94,16.94,0,0,0-.95-2.73l-.12-.68c-.74-1.51-.9-3.24-1.76-4.68-.19,8.58,0,17.16-.11,25.74l-.33.33c-2.24.08-4.48,0-6.72,0,0-12.37,0-24.73,0-37.09Zm194.67,0c2.89-.06,5.77,0,8.65,0,3.76-.13,7.87.48,10.73,3.13,2.55,2.41,3,6.29,2.13,9.55a7.7,7.7,0,0,1-3.42,4,9.82,9.82,0,0,1,5.74,6.39,13.7,13.7,0,0,1-.51,7.29,11,11,0,0,1-8,6c-5,1.16-10.22.59-15.33.72,0-12.35,0-24.7,0-37.06Zm7.19,14.06a38.46,38.46,0,0,0,4.8-.09,4.59,4.59,0,0,0,2.86-2.52,3.91,3.91,0,0,0-1.26-3.81c-1.85-1.31-4.25-.41-6.34-.88-.12,2.43,0,4.87-.06,7.3Zm0,6.87c-.06,3,.19,6-.14,8.91a32.15,32.15,0,0,0,7.34-.2,4.7,4.7,0,0,0,2.17-1.86,5.06,5.06,0,0,0,.07-4.43,5.34,5.34,0,0,0-2.25-1.89c-2.3-.86-4.8-.41-7.19-.53ZM431.34,9c2.36,0,4.73,0,7.1,0,0,5.14-.06,10.28.05,15.42,2.31-3,4.44-6.18,6.69-9.25,1.41-2.07,3-4,4.33-6.15,2.83-.09,5.67,0,8.5,0-4.54,6.09-9.19,12.11-13.84,18.11,3.79,5.26,7.72,10.44,11.57,15.66A22.79,22.79,0,0,1,458,46.11c-2.73,0-5.47,0-8.2,0-3.87-5.17-7.43-10.57-11.31-15.72-.1,5.24,0,10.48-.06,15.71-2.34,0-4.68,0-7,0a26.66,26.66,0,0,1-.15-4.38c-.14-2.44.23-4.86,0-7.29.11-8.47-.13-16.95.11-25.42ZM294.25,9c.15,12.37,0,24.73.08,37.1,2.34,0,4.67,0,7,0,.11-5.22,0-10.45.07-15.68l.48.56c3.64,5,7.14,10.15,10.81,15.15,2.75,0,5.5,0,8.26,0a22.22,22.22,0,0,0-2-3c-3.79-5.13-7.62-10.22-11.39-15.36a1,1,0,0,1,.17-1.39Q314.35,17.76,321,9.08c-2.83-.07-5.67-.08-8.5,0q-5.34,7.62-10.83,15.13l-.29.33c0-4.59,0-9.19,0-13.78A2.65,2.65,0,0,0,300.91,9c-2.21.11-4.44.11-6.66,0Zm168.09.08c2.08-.06,4.15,0,6.23-.06l.59.57c-.09,6.46,0,12.92-.14,19.37a33.51,33.51,0,0,0,.19,5.75l.2-.39c5.24-8.48,10.72-16.82,16-25.3A66.28,66.28,0,0,0,492.13,9a7.78,7.78,0,0,1,.38,2.67c0,11.27,0,22.54,0,33.8.11.61-.6.71-1,.68-2,0-4,0-5.95-.05a23.17,23.17,0,0,1-.07-5.52c-.15-3.14-.12-6.28,0-9.42.13-2.75-.28-5.49-.05-8.23a3.2,3.2,0,0,0-.25-2.16c-1.32,2.48-3,4.77-4.43,7.17-3.78,6-7.66,12-11.37,18l-.18,0a49.45,49.45,0,0,1-6.78.14c0-12.33,0-24.65,0-37Zm36.59,0c2.35-.08,4.7,0,7.06,0,.15,2.08-.07,4.16.08,6.25.11,3.25-.14,6.49,0,9.73,0,1.93-.2,3.85-.07,5.78.08,1.17-.3,2.42.24,3.51,3-5,6.19-9.77,9.24-14.68,2.19-3.53,4.5-7,6.63-10.54,2.37-.11,4.74-.06,7.11,0,0,12.23,0,24.47,0,36.71-.08.08-.23.24-.32.32-2.2.07-4.42,0-6.62,0-.09-8.55.09-17.11-.09-25.65-5.18,8.21-10.41,16.39-15.58,24.6-.25.35-.5.71-.73,1.07-2,0-3.95,0-5.92,0-.48.07-1.17-.1-1-.71V9.08ZM613.39,58.74c0-.17.08-.53.11-.7,1.88,0,3.76-.07,5.63,0a3,3,0,0,1,.52,1.1,3.9,3.9,0,0,0,4.1,1.27,3.5,3.5,0,0,0,2-2.39c1.91,0,3.83,0,5.74,0-.09,2.95-2.38,5.45-5,6.52-1.43.7-3.06.53-4.6.55a6.45,6.45,0,0,1-2.7-.35l-.64-.14A9.42,9.42,0,0,1,613.8,60l0-.66c-.09-.16-.28-.45-.37-.61Zm-303,12.5a18.51,18.51,0,0,1,10.31-4.74c3.27-.16,6.68-.23,9.73,1.16l.61.17a20.44,20.44,0,0,1,5.32,3.55,21.66,21.66,0,0,1,4.36,6.34c-2.68.08-5.36,0-8,0a12.45,12.45,0,0,0-7.4-4.48,19.46,19.46,0,0,0-3.66,0A13,13,0,0,0,315,76.53,13.67,13.67,0,0,0,312.38,80a12.68,12.68,0,0,0,5.28,16.62,12.21,12.21,0,0,0,9.06,1,11.56,11.56,0,0,0,3.5-1.73c.81-.58,1.38-1.44,2.18-2,2.66,0,5.31,0,8,0a18,18,0,0,1-14.54,10.89c-2.84.11-5.77.25-8.5-.7-6.51-1.9-11.43-7.79-12.77-14.36a19.34,19.34,0,0,1-.4-6.35,20.39,20.39,0,0,1,6.19-12.14ZM169,67.06c2.36.07,4.77-.29,7.1.11,0,8.37-.06,16.74,0,25.11,4.94-7.63,9.76-15.34,14.65-23,.62-.87,1-2.12,2.15-2.39,1,.31,2.06,0,3.09.09s2.11.09,3.17.11c0,12.3-.05,24.6,0,36.9-2.33-.15-4.67,0-7-.08,0-8.46-.06-16.92,0-25.38-.22.27-.46.54-.66.82-2.07,3.46-4.3,6.8-6.42,10.23-3.06,4.77-6.08,9.57-9.12,14.36-2.35,0-4.7,0-7.05,0,0-12.29,0-24.59,0-36.89Zm36.65.07a41.73,41.73,0,0,1,7-.1c.14,4.9,0,9.82.08,14.73,4.42,0,8.85,0,13.27,0,0-4.86,0-9.73,0-14.59,2.08-.27,4.18.12,6.26-.21l.76.21c0,12.27,0,24.55,0,36.81-2.34,0-4.68,0-7,0,0-5.08,0-10.17,0-15.26-4.44,0-8.87,0-13.3,0,0,5.09,0,10.18,0,15.27-2.35,0-4.7,0-7,0q0-18.39,0-36.78Zm47.83.08c1.17-.47,2.43,0,3.65-.24.91.08,1.83.11,2.75.15,1.24,2.92,2.62,5.78,3.88,8.69.65,1.41,1.28,2.82,1.93,4.23.91,2,1.79,4,2.73,6.06.61,1.32,1.16,2.69,1.83,4l.2.61c.25.48.48,1,.72,1.47.35.84.72,1.66,1.11,2.47s.61,1.51,1,2.22l.23.42c1.08,0,2.15,0,3.23,0,0,3.77.08,7.54,0,11.31a54.28,54.28,0,0,0-6.75.1v-.21c0-1.51,0-3-.1-4.53-8.84,0-17.67,0-26.51,0,0,1.47,0,2.94,0,4.41,0,.09,0,.27,0,.37q-3.36,0-6.74,0c0-3.85,0-7.7,0-11.55,1.17,0,2.34,0,3.5,0l.39-1c.59-1.31,1.19-2.62,1.81-3.93,1.24-2.87,2.56-5.71,3.85-8.57,1.5-3.36,3-6.71,4.53-10.08.93-2.13,2-4.2,2.8-6.4Zm3.07,9.7a16.49,16.49,0,0,1-1.2,3.18c-1.28,2.81-2.46,5.66-3.74,8.47-.3.7-.6,1.4-.91,2.1-1,2.17-1.88,4.38-2.91,6.53h17.79a21.32,21.32,0,0,0-.93-2.2c-2.41-5.63-4.94-11.21-7.35-16.83a8.7,8.7,0,0,0-.75-1.24Zm14.7-9.81c4.42,8.32,8.64,16.75,13,25.11a11.82,11.82,0,0,0,1,1.8,3.06,3.06,0,0,1-.09,1.31c-.58,1.3-1.27,2.56-1.83,3.88s-1.25,2.88-2,4.25c0,.24-.05.48-.06.73,2.5,0,5,0,7.51,0,1-2.16,2-4.34,3-6.52,1.57-3.42,3.08-6.86,4.67-10.27.66-1.54,1.37-3,2-4.57.62-1.33,1.22-2.66,1.82-4,.93-2,1.83-4,2.73-6.07.63-1.3,1.2-2.64,1.81-3.95.26-.56.49-1.14.7-1.71-2.55,0-5.09,0-7.62,0-1.16,2.5-2.22,5-3.31,7.57-.32.69-.62,1.38-.91,2.09-1.29,2.89-2.5,5.81-3.81,8.69l-.2,1a13.58,13.58,0,0,1-1.76-3.16c-2.73-5.37-5.28-10.84-8.09-16.16-2.84-.13-5.7-.07-8.54,0Zm70.29.05,1.28-.19c4.95.23,9.92,0,14.89.1,1.5.08,3-.19,4.52,0v.13c0,2.19,0,4.39,0,6.58-2.24,0-4.48,0-6.72,0-.05,10.12,0,20.24,0,30.36-2.33,0-4.67,0-7,0-.09-10.12,0-20.23,0-30.35h-6.71c-.27-2.22-.06-4.46-.13-6.69Zm24,0a37,37,0,0,1,5.26-.09,23.31,23.31,0,0,0,2.77,0,20.45,20.45,0,0,0,3.32,0,26.7,26.7,0,0,1,5.18.87c.49.23,1,.45,1.5.67A10.35,10.35,0,0,1,389,75.81a12.54,12.54,0,0,1-.24,6.68A10.79,10.79,0,0,1,383,88.88a5.5,5.5,0,0,0-.87.36c-3,1-6.2.76-9.32.78-.19,4.63,0,9.27-.08,13.9-2.39,0-4.79.06-7.19,0q0-18.4,0-36.79Zm7.21,16.15c2.55-.22,5.38.5,7.69-.9a4.19,4.19,0,0,0,1.79-4.14c.2-1.87-1.27-3.4-2.9-4.07a40.22,40.22,0,0,0-6.58-.37c-.06,3.16-.05,6.32,0,9.48Zm20.71-16.17c2.35-.11,4.69,0,7-.06.34,3,.08,6,.16,9,0,5.18,0,10.36,0,15.54,0,.16.1.47.14.63,5.23-8.44,10.65-16.75,15.9-25.18h6.9c.06,12.27,0,24.54,0,36.81h-6.76c-.05-8.51.07-17-.05-25.55-.16.24-.31.48-.46.73-5.23,8.28-10.5,16.54-15.73,24.83-2.38.07-4.76,0-7.14,0q0-18.41,0-36.82Zm49.16,0c1.91,0,3.81-.07,5.71.05.62,1.7,1.39,3.35,2.05,5,1.88,4.44,3.68,8.91,5.58,13.34.36.92.73,1.85,1.13,2.76,2.12,5.23,4.45,10.39,6.43,15.67q-3.86.06-7.72,0c-.83-2.19-1.7-4.37-2.59-6.54a18.76,18.76,0,0,1-.91-2.61c-4.57-.16-9.15-.12-13.72,0-1,3.12-2.41,6.1-3.56,9.18-2.58,0-5.16,0-7.74,0,1.09-2.82,2.28-5.61,3.49-8.38,0-.15.11-.47.15-.62.35-.71.67-1.43,1-2.15,1.87-4.44,3.68-8.89,5.57-13.32.58-1.46,1.14-2.92,1.81-4.34l.2-.61c1.12-2.46,2-5,3.17-7.45Zm-1.07,20.49c2.63.07,5.27.15,7.9,0-.29-.57-.54-1.15-.77-1.74-1-2.83-2.36-5.56-3.12-8.48-1.43,3.38-2.74,6.82-4,10.26ZM478.64,67.1c2.05-.07,4.11-.06,6.17,0,1.26,3.21,2.58,6.39,3.8,9.61.13.34.26.68.4,1,.91,2,1.61,4.18,2.49,6.24.62,1.53,1.18,3.08,1.85,4.58,0,.15.13.46.18.62.66,1.49,1.24,3,1.83,4.56s1.21,3,1.82,4.56,1.16,3.07,1.84,4.56a6.58,6.58,0,0,1,.27,1.32h-7.54c-1.13-2.74-2.05-5.55-3.1-8.32-.28-.81-.57-1.61-.9-2.4-1.26-3.56-2.61-7.1-3.89-10.65-.32-.82-.63-1.64-.88-2.47a11.11,11.11,0,0,1-.92-2.86l-.51.06c0-.11-.08-.34-.1-.46a12.85,12.85,0,0,1-1,3.2c-.28.84-.59,1.67-.9,2.5s-.59,1.63-.9,2.45c-1.58,4.37-3.22,8.71-4.78,13.08-.77,2-1.42,3.93-2.19,5.87h-7.56a7,7,0,0,1,.53-2c.58-1.29,1-2.66,1.63-3.94,0-.16.13-.47.17-.63,3.45-8.47,6.71-17,10.16-25.5.05-.15.14-.47.19-.62.64-1.47,1.19-3,1.81-4.44Zm24.28.12.31-.32a25.21,25.21,0,0,0,5.56,0l1,.19.25.73c-.37,1.93,0,3.89,0,5.84-.19,2.34-.09,4.7-.14,7l.31.59c1.86,0,3.72,0,5.58,0a11.15,11.15,0,0,1,3.31.26,13.35,13.35,0,0,1,2.74.91,10.35,10.35,0,0,1,5.46,7.32,14.53,14.53,0,0,1,.4,3,11.92,11.92,0,0,1-2.65,7.14,11.54,11.54,0,0,1-9,4c-4.4,0-8.8,0-13.19,0,0-12.24,0-24.48,0-36.72Zm7,20.87c0,2,0,4,.05,5.94,0,.5,0,1,0,1.52s.12,1.1.19,1.66c2.58-.19,5.25.33,7.77-.43a5.61,5.61,0,0,0,2.57-2.72,23.43,23.43,0,0,0,0-2.78c-.32-.56-.63-1.14-.92-1.71a11.3,11.3,0,0,0-2.5-1.43c-2.37-.14-4.75-.09-7.12,0Zm21.83-21c2.34,0,4.68,0,7,0,0,4.87,0,9.75,0,14.63,4.42,0,8.84,0,13.26,0,.08-4.87,0-9.75,0-14.62l.79-.17c2.07.34,4.18-.19,6.24.17,0,12.26,0,24.52,0,36.77-2.35.11-4.7,0-7.05,0,0-5.1,0-10.2,0-15.3H538.71q0,7.62,0,15.24c-2.33,0-4.67-.07-7,.08.08-12.3,0-24.6,0-36.91Zm33.78,0c2.39-.08,4.8-.11,7.19,0,0,4.74-.06,9.47,0,14.21,1.57-.18,3.15,0,4.73,0a16.89,16.89,0,0,1,4.26.28,13,13,0,0,1,2.71.93,10.44,10.44,0,0,1,4.91,5.18,14.17,14.17,0,0,1,.93,6.07,22.12,22.12,0,0,1-.7,3,10.84,10.84,0,0,1-6.3,6.35c-2.81,1.14-5.88.75-8.84.81s-6-.06-9,0c.08-12.28,0-24.56,0-36.84Zm7.19,20.94c0,3,0,6.1,0,9.14,2.57-.17,5.25.38,7.76-.41A4.58,4.58,0,0,0,583.07,94a11.83,11.83,0,0,0,0-2.66,4.78,4.78,0,0,0-4.7-3.28c-1.89,0-3.78,0-5.67,0Zm21-21c1.76-.13,3.54.08,5.3-.14l1.69.14q0,18.42,0,36.85c-2.33,0-4.65,0-7,0q0-18.4,0-36.82Zm36.83,0c2.34,0,4.69,0,7,0,.06,12.29,0,24.59,0,36.88-2.37,0-4.75,0-7.12,0,0-8.36,0-16.72,0-25.08l-.44.27c-1.1,2.12-2.54,4-3.74,6.08q-5.16,8.07-10.27,16.18a16.41,16.41,0,0,0-1.52,2.54h-7.09q0-18.4,0-36.82c2.23,0,4.47,0,6.7,0a14.42,14.42,0,0,1,.21,1.75c-.2,3.74,0,7.49,0,11.23-.09,4.21.09,8.42-.09,12.62.32-.42.65-.85.94-1.29,5.06-8.13,10.24-16.19,15.37-24.28ZM235.7,125.18c2.24,0,4.47,0,6.71,0a14.12,14.12,0,0,1,.23,3.79c0,3.68,0,7.35,0,11,4.37,0,8.74,0,13.11,0,.45-1.64.08-3.33.13-5,.29-3.29-.29-6.58.15-9.86q3.38.08,6.75,0c-.09,10,0,19.95,0,29.92,0,2.26-.08,4.53.09,6.79-2,.66-4.18.31-6.27.38l-.65,0c.19-5.17,0-10.36.09-15.53-4.47-.13-8.94,0-13.41-.06l0,.24c0,4.44,0,8.89,0,13.34a10.68,10.68,0,0,1-.21,2c-2.25,0-4.5,0-6.74,0q-.07-18.59,0-37.16Zm-66.67,0c7.21,0,14.41,0,21.61,0,0,2.31,0,4.62,0,6.93-4.85,0-9.7,0-14.54,0,0,2.42,0,4.85,0,7.28,3.69.17,7.54-.54,11.08.83a10.12,10.12,0,0,1,6.27,6.63,12.62,12.62,0,0,1-.59,9.2,11.38,11.38,0,0,1-7.43,5.8c-2.82.61-5.7.38-8.56.42H169q-.06-18.56,0-37.12Zm7.07,21v9.13c2.59,0,5.19.1,7.77-.13a7.25,7.25,0,0,0,2.08-1.4,8.83,8.83,0,0,0,1.09-2,4.94,4.94,0,0,0-5.29-5.58Zm33.58-17.56c.49-1.14.93-2.31,1.5-3.42,1.81,0,3.62,0,5.43,0,1.56,3.09,2.66,6.4,4.12,9.54l.2.6c.33.71.62,1.43.91,2.16,1.8,4.36,3.66,8.7,5.42,13.07,1.45,3.35,2.8,6.73,4.23,10.08a5.39,5.39,0,0,1,.54,1.66c-2.5,0-5,0-7.52,0a44,44,0,0,1-2-4.74c-.54-1.3-1-2.66-1.62-3.92,0-.2-.1-.6-.13-.8-4.5,0-9,0-13.51,0-1.29,3.15-2.49,6.34-3.81,9.48-2.54,0-5.08,0-7.61,0a39.27,39.27,0,0,1,1.71-4.48c.32-.71.61-1.43.89-2.15,1.29-3,2.5-6,3.78-9a20.34,20.34,0,0,1,.93-2.14c.05-.16.14-.48.18-.64,1.5-3.41,2.87-6.88,4.33-10.31l2-4.94Zm4,7.2c-.07.35-.13.7-.2,1.06-.51,1.08-.9,2.2-1.32,3.31-.73,1.88-1.49,3.75-2.19,5.65h7.89c-.45-1.29-.94-2.57-1.5-3.81,0-.16-.1-.48-.13-.63-.56-1.14-1-2.33-1.42-3.5a4.25,4.25,0,0,0-1.13-2.08Zm55.78,26.47c-.07-12.32,0-24.64-.06-37,2.32.13,4.66,0,7,.08,0,5.18,0,10.37,0,15.56.24-.3.48-.59.71-.89,2.28-3.28,4.64-6.51,7-9.77,1.25-1.7,2.41-3.49,3.76-5.13H296a20.79,20.79,0,0,1-2.16,3c-3.88,5-7.7,10.11-11.62,15.1,3.66,5.22,7.58,10.27,11.35,15.42a31.37,31.37,0,0,1,2.45,3.5c-2.77.06-5.54,0-8.31,0-3.65-5.12-7.25-10.28-10.94-15.36l-.35-.56c0,5.3,0,10.59,0,15.88C274.1,162.34,271.78,162.29,269.46,162.3Z"/></g></g></svg>