<svg xmlns="http://www.w3.org/2000/svg" viewBox="0 0 175.75 46.99"><defs><style>.cls-1{fill:#1d1d1b;}.cls-1,.cls-2{fill-rule:evenodd;}.cls-2{fill:#ffed00;}</style></defs><title>Ресурс 1</title><g id="Слой_2" data-name="Слой 2"><g id="Слой_1-2" data-name="Слой 1"><polygon class="cls-1" points="0 46.99 46.19 46.99 46.19 0.8 0 0.8 0 46.99 0 46.99"/><polygon class="cls-2" points="1.34 45.66 44.85 45.66 44.85 2.14 1.34 2.14 1.34 45.66 1.34 45.66"/><path class="cls-1" d="M3.65,36.86l5.67,5.79,13.3-13.49L36.37,42.93l5.76-5.7L28.52,23.62l2.62-2.53v-5.4l1.64-1.39v4.23l2.11,1.72,6.32-6.31,2,1.55c1.2-4.42-5.73-14.47-11.46-8.9L25.1,13.21l1.36,1.64-3.39,3.32-3.29-3.23,1.73-1.56L14.19,6.31C8.68,1.78,3,8.68,2.84,15.41l2-1.67L11,20.36l2.2-1.83V14.46l1.36,1v5.32l2.67,2.67L3.65,36.86Z"/><path class="cls-1" d="M58,6.34v4h1.72c2.37-.45,1.73-3.84,0-4Zm-4.9-4V20.5H58V14.6l4.17,5.9H68L62.8,13.24c6-2.89,3.73-10.8-2.53-10.88Zm22.65,9.07a2.83,2.83,0,0,1,2.92,2.73,2.91,2.91,0,0,1-5.81,0,2.83,2.83,0,0,1,2.89-2.73Zm-1-4a6.33,6.33,0,0,1,3.62,1.17V7.9h4.79l0,12.6H78.3l0-.78a6.23,6.23,0,0,1-3.62,1.14,6.61,6.61,0,0,1-6.48-6.7,6.64,6.64,0,0,1,6.48-6.74Zm11,.48h5.09V20.5H85.68V7.9ZM88.24.69a2.7,2.7,0,1,1-2.7,2.7,2.7,2.7,0,0,1,2.7-2.7ZM126.89,7.9H132V20.5h-5.09V7.9ZM129.42.69a2.7,2.7,0,1,1-2.67,2.7,2.71,2.71,0,0,1,2.67-2.7ZM91.71,7.9v4h1.76v8.6h4.92V11.9H103v8.6h5.09V11.85h3.18V8H108V5.14c-.08-1,2.34-1.44,3.18-.61V.41c-4.68-1.47-8.46,1.17-8.43,5.26V7.9H98.36V5.14c0-1,2.06-1.44,3.29-.61V.41c-4.06-1.19-8.41.78-8.38,5.23V7.87l-1.56,0Zm26.83,13c4.37,0,6-1.83,6.93-4.48H121A2.58,2.58,0,0,1,116.26,15h9.35c0-5.12-2.73-7.54-7.07-7.54a6.68,6.68,0,0,0-7.07,6.79,6.79,6.79,0,0,0,7.07,6.62ZM116.9,12c0-1.53,3.39-1.53,3.61,0Zm36.31,8.84c4.4,0,6-1.83,7-4.48h-4.46A2.58,2.58,0,0,1,150.93,15h9.35c0-5.12-2.7-7.54-7.07-7.54a6.68,6.68,0,0,0-7.07,6.79,6.79,6.79,0,0,0,7.07,6.62ZM151.57,12c.05-1.53,3.39-1.53,3.62,0Zm-6.76-3.87-1.51,3.06c-1.89-.59-3.72-.47-3.67,0,.06.34-.25.92,2.7,1.34,4.4.7,4,8.88-3.34,8.26a11.08,11.08,0,0,1-5-1.47l1.65-3.28c2.31,1.14,4.53,1.81,4.7.66.19-1.42-2.42-.91-4-2.11-2.84-1.75-1.22-7.18,3.42-7.24a13.77,13.77,0,0,1,5.1.73Zm17.42-.25V20.5H167V12.8c.14-1.92,3.93-2.26,4,0v7.7h4.82V12.6c-.11-4.42-4.76-6.57-9-3.76V7.9ZM55.9,28.21l-3.17,18.7h9c6.09,0,8.6-7.57,4.26-10.16,3.7-3.42,1.8-8.57-2.18-8.62l-7.9.08Zm3.65,11.16-.64,3.09H61c2.37.11,2.09-3.09.73-3.09Zm1.05-6.71-.52,2.51.64,0c1.92.11,3-2.54.72-2.54ZM68,46.94h5.45l1.64-3.29h6.18L82.2,47h5L82.87,28.32H77.72L68,46.94Zm8.87-7.21h3.4l-1.09-4.92-2.31,4.92ZM89,47h5l1.28-11.71,7.2,11.66h5.4l2.26-18.73h-5l-1.42,11.72L96.47,28.15h-5.2L89,47Zm24.79-18.84-3.53,18.79h5.31l1.42-7,4.76,7h7l-6.81-9.85,8.71-9h-6.76l-6,6.62.95-6.62-5.07,0Z"/></g></g></svg>