<svg xmlns="http://www.w3.org/2000/svg" viewBox="0 0 594.54 150.54"><defs><style>.cls-1,.cls-2{fill:#1a9f29;}.cls-1{fill-rule:evenodd;}</style></defs><title>sber</title><g id="Слой_2" data-name="Слой 2"><g id="_1" data-name="1"><path class="cls-1" d="M155,69.37a24,24,0,0,0,9.1,6.15,34.53,34.53,0,0,0,13,2.21,57.58,57.58,0,0,0,6.88-.49,19.07,19.07,0,0,0,5.66-1.48c1.72-.49,3.2-1.23,4.68-1.72,1.23-.74,2.46-1.23,3.44-1.72l-1.72-3.69-3,1.48c-1,.49-2,.73-3.2,1.23a19,19,0,0,1-3.94.73,32.43,32.43,0,0,1-5.16.25c-3.69,0-6.89-.74-9.1-2.21A17.78,17.78,0,0,1,166,64.45a29.39,29.39,0,0,1-2.71-8.61A75.23,75.23,0,0,1,162.59,45c0-2.95.25-6.14.5-9.34a22,22,0,0,1,2.21-8.37,17.16,17.16,0,0,1,4.92-6.15,15.79,15.79,0,0,1,8.86-2.46,15.13,15.13,0,0,1,8.85,2.71c2.46,1.72,3.94,4.67,4.67,8.36h3.94v-12c-1.23-.49-2.46-1-3.94-1.48a26.55,26.55,0,0,0-4.67-1c-1.72-.25-3.2-.25-4.92-.49-1.48,0-2.95-.25-4.18-.25a38.47,38.47,0,0,0-13.78,2.22,25.28,25.28,0,0,0-9.34,6.39,26.54,26.54,0,0,0-5.42,10.09,46.26,46.26,0,0,0-1.72,13.53,41.6,41.6,0,0,0,1.72,12.79A19.39,19.39,0,0,0,155,69.37Z"/><path class="cls-1" d="M395.54,75.76a20.89,20.89,0,0,0,8.12-2.46,13.65,13.65,0,0,0,5.65-6.15q2.22-4.05,2.22-11.07a22.39,22.39,0,0,0-1.48-8.61,13.52,13.52,0,0,0-4.67-5.9,23.76,23.76,0,0,0-8.37-3.2,62.27,62.27,0,0,0-12.54-1H379.3V22.88c0-1.48.25-2.46,1-3s2-.49,3.93-.49h7.38a37.59,37.59,0,0,1,5.66.25,6.21,6.21,0,0,1,3.44,1.23,6.67,6.67,0,0,1,2.22,2.95A31.2,31.2,0,0,1,404.64,29h3.2V15.5H362.58v2a4.84,4.84,0,0,0,1.23.25,4,4,0,0,1,1.47.74,4,4,0,0,1,.74,1.47c0,.74.25,1.48.25,2.46v47a6.79,6.79,0,0,1-.25,2.46,1.48,1.48,0,0,1-.74,1.47,2.08,2.08,0,0,1-1.47.74,3.27,3.27,0,0,1-1.23.25v2h22.87a66.3,66.3,0,0,0,10.09-.49Zm-15-4.43a2.22,2.22,0,0,1-.73-1.72c0-.73-.25-1.72-.25-3V41.08h5.17c4.67,0,8.11,1.23,10.08,3.69s2.95,6.39,2.95,11.81a27.55,27.55,0,0,1-1,8.61,11.75,11.75,0,0,1-2.71,4.92,14.72,14.72,0,0,1-3.69,2.21,26.58,26.58,0,0,1-4.42.49,34.66,34.66,0,0,1-3.45-.49A5,5,0,0,1,380.53,71.33Z"/><path class="cls-1" d="M330.85,74.29a5.08,5.08,0,0,0-1.23-.25,4,4,0,0,1-1.48-.74,3.9,3.9,0,0,1-.74-1.47c0-.74-.24-1.48-.24-2.46v-17h6.15a54.9,54.9,0,0,0,9.1-.73A23.43,23.43,0,0,0,350,49a13.53,13.53,0,0,0,5.17-5.9,23,23,0,0,0,2-10.09,23.38,23.38,0,0,0-1.73-9.35,15,15,0,0,0-4.92-5.41A16.23,16.23,0,0,0,343.39,16c-2.71-.25-5.41-.49-8.36-.49H310.92v2a5,5,0,0,0,1.23.25,4,4,0,0,1,1.48.74,4,4,0,0,1,.73,1.47c0,.74.25,1.48.25,2.46V69.12a6.73,6.73,0,0,1-.25,2.46,1.49,1.49,0,0,1-.73,1.48,2.14,2.14,0,0,1-1.48.73,3.24,3.24,0,0,1-1.23.25v2h19.93V74.29ZM327.4,22.38a3.05,3.05,0,0,1,.25-1.47,1.29,1.29,0,0,1,.49-1,2.12,2.12,0,0,1,1.48-.49c.73,0,1.47-.24,2.7-.24a26.69,26.69,0,0,1,4.43.49,11.34,11.34,0,0,1,3.69,2.21,13.61,13.61,0,0,1,2.46,4.18,24.21,24.21,0,0,1,.74,6.4q0,7.76-2.22,11.81c-1.47,2.7-4.18,4.18-7.87,4.18H327.4V22.38Z"/><path class="cls-1" d="M302.8,62.23h-3.93a44.91,44.91,0,0,1-1.48,5.66,5.91,5.91,0,0,1-2,3.2A4.83,4.83,0,0,1,292,72.32a41.26,41.26,0,0,1-6.15.25,34.34,34.34,0,0,1-5.66-.25,8.23,8.23,0,0,1-3.19-1,2.52,2.52,0,0,1-1.23-2,13.91,13.91,0,0,1-.25-3.45V46.74h10.58c1,0,2,.24,2.95.24a12.63,12.63,0,0,1,3,.49,7.55,7.55,0,0,1,2.46,1V40.59a7.33,7.33,0,0,1-2.46,1,12.13,12.13,0,0,1-3,.49,11.81,11.81,0,0,1-2.95.25H275.5V22.14a6.71,6.71,0,0,1,.49-2.71c.49-.49,1.23-.49,2.46-.49h6.64a37.59,37.59,0,0,1,5.66.25,6.21,6.21,0,0,1,3.44,1.23,6.62,6.62,0,0,1,2.22,2.95,31.36,31.36,0,0,1,1.72,5.16h3.2v-13H259v2a4.84,4.84,0,0,0,1.23.25,3.9,3.9,0,0,1,1.47.74,3.83,3.83,0,0,1,.74,1.47c0,.74.25,1.48.25,2.46V69.12a6.73,6.73,0,0,1-.25,2.46,1.48,1.48,0,0,1-.74,1.48,2.09,2.09,0,0,1-1.47.73A3.27,3.27,0,0,1,259,74v2H302.8Z"/><path class="cls-1" d="M235.9,75.76A20.79,20.79,0,0,0,244,73.3a15.78,15.78,0,0,0,5.91-6.15q2.21-4.05,2.21-11.07a22.39,22.39,0,0,0-1.48-8.61,13.52,13.52,0,0,0-4.67-5.9,23.7,23.7,0,0,0-8.36-3.2,62.43,62.43,0,0,0-12.55-1h-5.16V22.88c0-1.48.24-2.46,1-3s2-.49,3.94-.49h7.38a37.45,37.45,0,0,1,5.65.25,6.28,6.28,0,0,1,3.45,1.23,6.73,6.73,0,0,1,2.21,2.95A31.2,31.2,0,0,1,245.24,29h3.2V15.5H203.18v2a5,5,0,0,0,1.23.25,4,4,0,0,1,1.48.74,4,4,0,0,1,.73,1.47c0,.74.25,1.48.25,2.46V69.12a7.49,7.49,0,0,1-.25,2.46,1.49,1.49,0,0,1-.73,1.48,2.14,2.14,0,0,1-1.48.73,3.24,3.24,0,0,1-1.23.25v2.21h22.88a63,63,0,0,0,9.84-.49Zm-15-4.43a2.23,2.23,0,0,1-.74-1.72c0-.73-.24-1.72-.24-3V41.08h5.16c4.68,0,8.12,1.23,10.09,3.69s3,6.39,3,11.81a27.85,27.85,0,0,1-1,8.61,11.75,11.75,0,0,1-2.71,4.92,14.72,14.72,0,0,1-3.69,2.21,26.69,26.69,0,0,1-4.43.49c-1.47-.24-2.46-.24-3.44-.49A4.88,4.88,0,0,1,220.89,71.33Z"/><rect class="cls-2" x="148.08" y="93.47" width="445.96" height="5.9"/><path class="cls-1" d="M558.38,53.38c1.23,1.72,2.21,3.2,3.44,4.67,1,1.48,2.22,3,3.2,4.43a49.14,49.14,0,0,0,3.2,4.43,57.09,57.09,0,0,1,3.2,4.92,42.83,42.83,0,0,1,2.46,4.67l20.66.25c-2.22-2.22-4.18-4.43-6.4-6.64-2-2.22-3.69-4.19-4.92-5.42-2-2.21-3.69-4.18-5.16-5.9-1.72-2-3.2-3.69-4.68-5.41s-3-3.69-4.18-5.41-2.7-3.94-3.93-5.91l1-1.23c1.48-2,3.2-3.93,5.17-6.39a83.77,83.77,0,0,1,6.15-7.14A83.31,83.31,0,0,1,584,20.66,71,71,0,0,1,589.62,16H575.35a37.61,37.61,0,0,1-2.21,4.43,49.76,49.76,0,0,1-3.45,5.65c-1.23,2-2.7,4.19-3.93,6.4-1.48,2.21-2.71,4.18-4.18,6.15s-2.71,3.94-3.94,5.41c-1.23,1.72-2.21,2.95-2.95,4.18Z"/><path class="cls-1" d="M556.66,74.29a5.08,5.08,0,0,0-1.23-.25A4,4,0,0,1,554,73.3a3.9,3.9,0,0,1-.74-1.47c0-.74-.24-1.48-.24-2.46V22.63a7,7,0,0,1,.24-2.46,1.5,1.5,0,0,1,.74-1.48,4.06,4.06,0,0,1,1.48-.73,3.21,3.21,0,0,1,1.23-.25V15.5H536.73v2a5,5,0,0,0,1.23.25,4,4,0,0,1,1.48.74,4.14,4.14,0,0,1,.74,1.47c0,.74.24,1.48.24,2.46V69.12a7,7,0,0,1-.24,2.46,1.5,1.5,0,0,1-.74,1.48,2.14,2.14,0,0,1-1.48.73,3.24,3.24,0,0,1-1.23.25v2h19.93Z"/><path class="cls-1" d="M424.32,68.88c.74-3.45,2.21-8.37,4.18-14.52h19.43l2.71,7.87a67.68,67.68,0,0,1,2.7,8.86,22.17,22.17,0,0,1,1.23,5.41h15.5c-.74-1.23-1.48-3-2.46-4.92A69.34,69.34,0,0,1,464.17,63l-14-39.85a20,20,0,0,1-1.23-4.43c-.25-1.23-.25-2.21-.5-3H431v2a5,5,0,0,0,1.23.25,4.06,4.06,0,0,1,1.48.73,4.06,4.06,0,0,1,.73,1.48V21.4a9.43,9.43,0,0,1-.73,3.94l-9.84,24.1c-1.73,4.43-3.45,8.37-4.68,11.32s-2.46,5.66-3.2,7.62c-1,2-1.72,3.69-2.45,4.92s-1.23,2.22-1.73,3.2h11.07c.25-1.72.74-4.18,1.48-7.62Zm14-43.3,8.12,24.6H429.73Z"/><path class="cls-1" d="M493.44,74.29H493a5,5,0,0,0-1.23-.25,2.62,2.62,0,0,1-2.22-2.21c0-.74-.24-1.48-.24-2.46V46h23.61V69.12a7,7,0,0,1-.24,2.46,1.5,1.5,0,0,1-.74,1.48,2.14,2.14,0,0,1-1.48.73,3.24,3.24,0,0,1-1.23.25v2h19.93V74a5.08,5.08,0,0,0-1.23-.25,2.59,2.59,0,0,1-2.22-2.21c0-.74-.24-1.48-.24-2.46v-47a7,7,0,0,1,.24-2.46,1.5,1.5,0,0,1,.74-1.48,4.21,4.21,0,0,1,1.48-.74,3.33,3.33,0,0,1,1.23-.24V15.5H509.67v2a5.08,5.08,0,0,0,1.23.25,4,4,0,0,1,1.48.74,4,4,0,0,1,.74,1.47c0,.74.24,1.48.24,2.46V41.82H489.75V22.38a6.79,6.79,0,0,1,.25-2.46,1.48,1.48,0,0,1,.73-1.47,4,4,0,0,1,1.48-.74,3.24,3.24,0,0,1,1.23-.25v-2H473.51v2a5.08,5.08,0,0,0,1.23.25,4,4,0,0,1,1.48.74,4,4,0,0,1,.74,1.47c0,.74.24,1.48.24,2.46v47a7.78,7.78,0,0,1-.24,2.46,1.47,1.47,0,0,1-.74,1.47,2.1,2.1,0,0,1-1.48.74,3.21,3.21,0,0,1-1.23.25v2h19.93Z"/><path class="cls-1" d="M107.49,21.89l-3.69-5.16L35.67,55.84,2.71,36.9a30.13,30.13,0,0,0-1.48,6.39L35.91,63.22Z"/><path class="cls-1" d="M35.67,70.6.25,50.18A20.87,20.87,0,0,0,0,54.12a58.55,58.55,0,0,0,117.09,0,56.53,56.53,0,0,0-6.4-26.57Z"/><path class="cls-1" d="M99.13,11.81c-1.72-1.72-3.44-3-5.16-4.43l-58.3,33.7-28-16c-1,1.72-2,3.69-3,5.66L35.42,48.46Z"/><path class="cls-1" d="M88.06,3.44A59,59,0,0,0,81.17,0L35.67,26.32,15.25,14.76c-1.48,1.47-2.7,3.2-4.18,4.92l24.35,14Z"/><path class="cls-1" d="M397.75,143.9l4.68-24.11h7.62c4.43,0,6.4,2.22,6.4,5.66,0,3.2-2,4.92-5.66,6.15,2.46,1,3.94,2.71,3.94,5.17,0,4.42-3,6.88-8.86,6.88h-8.12v.25Zm2.95-2.21h5.66c3.69,0,5.91-2,5.91-4.92,0-2.22-2-4.43-5.66-4.43h-4.43l-1.48,9.35Zm2.22-11.32h4.92c4.18,0,6.39-2,6.39-4.92q0-3.69-4.42-3.69h-4.92Z"/><path class="cls-1" d="M431.45,139.47c-1.47,2.71-3.2,4.68-6.64,4.68-3.94,0-6.64-3.2-6.64-7.63,0-5.41,3.44-10.09,8.12-10.09,3.44,0,5.16,2,6.15,4.92l-2.22.5c-.74-2.22-2-3.45-3.93-3.45-3.2,0-5.91,3.45-5.91,8.37,0,3.44,1.72,5.16,4.68,5.16,2.7,0,3.69-1.47,4.67-3.2Z"/><path class="cls-1" d="M436.62,135.54v1.23c0,3.44,1.72,5.41,4.43,5.41,2.46,0,3.93-1.72,5.41-3.94l2,1c-2,3-3.93,4.92-7.62,4.92-3.94,0-6.4-3-6.4-7.38,0-5.91,3.45-10.34,8.37-10.34,3.93,0,6.15,2.46,6.15,6.89,0,.74-.25,1.48-.25,2.22Zm10.08-2c.25-.49,0-.74,0-1a3.73,3.73,0,0,0-3.93-3.93c-3.2,0-4.68,2-5.66,5.16h9.59Z"/><polygon class="cls-1" points="454.57 126.93 464.17 126.93 463.92 128.9 456.54 128.9 453.59 143.9 451.38 143.9 454.57 126.93"/><path class="cls-1" d="M462.2,141.93l7.13-15h3.45l2,15h1.73l-1,5.17h-1.72l.25-3.2H462.45l-1,3.2h-1.72l1-5.17Zm10.08,0-1.23-12.79h-.49l-5.9,12.79Z"/><path class="cls-1" d="M490.49,133.81c0-.73.24-1.47.24-2,0-2-1.47-3.2-3.69-3.2a4.69,4.69,0,0,0-3.69,2l-1.47-1.48a8.6,8.6,0,0,1,5.66-2.46c3.44,0,5.65,2.21,5.65,4.92,0,.49-.24,1.48-.24,2.71L491.72,140a15.45,15.45,0,0,0-.49,4.19H489a4.93,4.93,0,0,1-.24-2,7.6,7.6,0,0,1-4.92,2.21,4.93,4.93,0,0,1-4.92-4.92c0-3.44,3.19-5.66,9.1-5.66Zm-.49,1.73h-1.73c-4.67,0-7.13,1.23-7.13,3.69a2.84,2.84,0,0,0,2.95,3c1.72,0,3.2-1,4.92-2.22Z"/><path class="cls-1" d="M510.9,128.89c1.48-1.47,3-2.46,4.92-2.46,3.69,0,5.66,2.46,5.66,7.14,0,6.15-3.69,10.58-8.12,10.58a6.64,6.64,0,0,1-4.92-2.22l-1.72,8.61h-2.21l4.67-23.86h2l-.25,2.21Zm-2,10.83a4.87,4.87,0,0,0,4.42,2.46c3.2,0,6.15-3.69,6.15-8.86,0-3.2-1.47-4.92-3.93-4.92a5.14,5.14,0,0,0-4.68,2.95Z"/><path class="cls-1" d="M531.07,136l-5.41,7.87H523.2l5.66-7.87a4.65,4.65,0,0,1-3.44-4.43c0-2.21,2-4.67,5.9-4.67h8.12l-3.45,17h-2.21l1.48-7.87Zm5.42-7.38h-5.42c-2.46,0-3.69,1.47-3.69,2.7,0,1.73,1,2.46,3,2.46h4.92Z"/><path class="cls-1" d="M541.65,141.93l7.14-15h3.44l2,15h1.72l-1,5.17h-1.72l.25-3.2H541.9l-1,3.2h-1.72l1-5.17Zm9.84,0-1.23-12.79h-.49l-5.9,12.79Z"/><path class="cls-1" d="M557.89,136.77c0-5.91,3.69-10.34,8.11-10.34,3.69,0,5.91,3,5.91,7.38,0,5.66-3.69,10.34-8.12,10.34-3.44,0-5.9-2.71-5.9-7.38Zm2.21.49c0,3.2,1.72,4.92,3.94,4.92,3,0,5.9-3.69,5.9-8.61,0-3.2-1.72-5.17-3.94-5.17C563.05,128.4,560.1,132.09,560.1,137.26Z"/><polygon class="cls-1" points="591.59 128.9 584.21 143.9 581.99 143.9 579.78 128.9 576.83 143.9 574.61 143.9 578.06 126.93 581.75 126.93 583.71 141.69 590.85 126.93 594.54 126.93 591.09 143.9 588.88 143.9 591.59 128.9"/></g></g></svg>