<svg xmlns="http://www.w3.org/2000/svg" viewBox="0 0 1813.39 192.99"><defs><style>.cls-1{fill:#da251c;}.cls-1,.cls-2{fill-rule:evenodd;}.cls-2{fill:#00477f;}</style></defs><title>Ресурс 1</title><g id="Слой_2" data-name="Слой 2"><g id="_1" data-name="1"><path class="cls-1" d="M50.62,11.54A94.38,94.38,0,0,1,103.17.31c-.12,12.19.07,24.39-.07,36.58-14.64-.62-29.63,3.68-41.07,13a59.45,59.45,0,0,0-3,90.51c11.47,10.88,27.42,15.92,43,15.78,0,12.23.19,24.46,0,36.68A96.54,96.54,0,0,1,50.62,11.54Zm312.6,2.52c4,17.82,9,35.43,12.67,53.3-2.33.65-4.61,1.46-6.86,2.31-2.94-6.93-6.95-13.56-12.92-18.28-13.75-11-32.95-14-49.75-9.38-7.66,2-14.18,7-19,13.19a59.58,59.58,0,0,0-11.86,36.93c-.19,19.13,7,38.55,20.74,52.08A58,58,0,0,0,334.33,161c12.93,1.34,26.5-2.77,36-11.84,6.62-6.48,11.41-14.58,15.24-23,2.62.87,5.14,2,7.68,3.08-6,16.56-12.72,32.87-18.78,49.41-9.3-2.13-18.84-.34-28.24-.15-18.1.94-36.66-.9-53.53-7.85s-31.47-19.66-40-35.88c-9.67-17.74-12.39-39-8.32-58.7,2.65-11.65,7.92-23,16.34-31.57,11.41-11.88,27.3-18.71,43.47-20.85,10.66-1.82,21.54-1.47,32.23-.13,7,.06,14.09,2.19,21,.92,3-2.74,3.84-7,5.82-10.42Zm104.6,8.88c-17.47,2-34.56,9.14-47.29,21.43C397.1,65.86,390.13,102.5,403,131.43a75.81,75.81,0,0,0,39.45,40.43,90.73,90.73,0,0,0,56.35,4.52,82.55,82.55,0,0,0,42.3-25.23c9.51-10.89,16.08-24.55,17.72-39,2-16.91-1-34.56-9.27-49.5A75.25,75.25,0,0,0,517,31.48c-15.05-7.73-32.42-10.17-49.16-8.54Zm-5,18C473,39,484,40.16,493,45.43c15.85,8.67,25.83,25.14,30.65,42.13,3.89,15.57,4.17,32.62-2.38,47.54-4.49,10.6-13,19.66-23.83,23.8A46.48,46.48,0,0,1,464,157.46c-10.51-4.91-18.62-13.91-24.32-23.87a86.26,86.26,0,0,1-9.48-50.35c1.53-11.72,5.79-23.5,14.24-32A37.91,37.91,0,0,1,462.81,41Zm476-18c16.54-1.58,33.69.7,48.68,8.12a76.31,76.31,0,0,1,31.84,29.07c14.61,24.58,15.76,57.72-.21,81.93-14.68,23-41.82,36.76-68.89,36.78-19.71.46-40-5.53-55-18.56-21.6-18.19-31.68-48.64-25.6-76.18a75.43,75.43,0,0,1,29.71-45.95,82.17,82.17,0,0,1,39.5-15.21Zm-4.09,17.94c-11.93,2.21-21.75,11-27.12,21.63-6.08,12.17-7.72,26.19-6.33,39.62,2,17,8.36,34.15,20.9,46.19,14.55,15.33,41.06,17.81,57.52,4.18,11.14-9.07,16.65-23.4,17.85-37.41A81.63,81.63,0,0,0,988,70.38c-5.86-11.25-15.09-20.95-26.59-26.46-8.29-3.9-17.76-4.6-26.7-3.05ZM570.89,25.42c27.82-.17,55.63,0,83.44-.06,10.7.18,22.35-.12,31.53,6.28,6.61,4.27,8.79,13.1,7,20.44-1.64,7.91-7.6,14-14,18.58-4.33,3.08-9.14,5.35-13.6,8.2,13.16,5.48,26.14,12.89,34.62,24.68a42.82,42.82,0,0,1,8.17,31.68,40.87,40.87,0,0,1-21.89,32.53c-12.34,6-26.24,7.75-39.81,8-20,.47-40,.43-60,.27-5.15.13-10.32.45-15.45-.15q0-3.69,0-7.4c4-.74,8.56-1.21,11.14-4.77,3.87-5.39,2.59-12.44,3.36-18.66,0-28.63.1-57.26,0-85.89-.48-6.84-.21-13.91-2.7-20.42-2.13-4.52-7.56-5-11.84-6,.09-2.45.1-4.89.06-7.35Zm55.4,16.64c-3.14.53-7,.63-9.18,3.2-1.39,5.16-1.18,10.56-1.21,15.85,0,6.87-.06,13.75,0,20.63,13.92-4.61,28.38-9.45,39.41-19.54,3.83-3.51,6.6-9.14,4.83-14.33-.93-3-4.17-4-6.93-4.71a94.74,94.74,0,0,0-27-1.1Zm14.13,47c-8.16,3.28-16.56,6-24.59,9.57.18,16.16,0,32.33.1,48.49.09,3.07.11,6.24,1.14,9.18s4.75,2.86,7.34,3.24c12.33.4,25.33.16,36.62-5.42,14.76-7.6,20.22-27.93,12.6-42.4-5.47-10.49-15.11-18.31-25.54-23.55-2.49-1.73-5.24.07-7.67.89Zm76-63.75a25.27,25.27,0,0,0,.1,7.86c4.44.34,9.87,1.5,11.69,6.15,2.61,7.26,2.42,15.14,2.43,22.77,0,29,.07,58-.06,87-.32,5-.06,10.77-3.49,14.86-2.6,3.15-6.81,3.91-10.64,4.33q-.11,3.94,0,7.89c19.73-.09,39.49.36,59.21-.27,0-2.49,0-5,0-7.45-2.38-.55-4.86-.6-7.15-1.42-4.58-2-6.59-7.28-6.76-12-.94-18.32.21-36.69-.61-55-.31-3.14,3-4.31,4.92-6.07,4.38-3.21,8.18-7.28,13-9.89a271.9,271.9,0,0,1,22.66,29.58c7.17,10.87,12.48,22.87,17.11,35,1.57,5,3.33,10.2,2.7,15.46-.61,3.6-4.6,3.8-7.46,4.27,0,2.5,0,5,0,7.51q27.35.49,54.7,0c0-2.5,0-5,0-7.49-2.51-.58-5.33-.49-7.46-2.1-2.77-1.92-4-5.22-5.44-8.1-6.27-13.68-11.3-27.94-18.23-41.33a198,198,0,0,0-34.41-48.69,6.94,6.94,0,0,1-1.94-3c9-7.39,18-15,27.4-21.92,8.14-5.9,17.91-10,28.11-9.93,0-2.65.06-5.3,0-7.94-19.73-.08-39.47-.11-59.2,0a67.91,67.91,0,0,0,.16,7.55c1.6.78,3.64.29,5.18,1.3,1.23,4-2.16,7.17-4.53,9.87C786.87,55.62,774,65.65,761.5,76c0-4-.57-8-.26-11.92.31-8.56-.65-17.5,2.36-25.69,2-4.52,7.63-4.88,11.95-5.11.05-2.6.05-5.23.06-7.84-19.73-.18-39.45,0-59.18-.08Zm326.29.1c20.6-.2,41.21,0,61.82-.09.06,2.39.06,4.79.1,7.17a34.53,34.53,0,0,1-3.86,1.33c.63,5.56,4.25,10.16,6.66,15.06q9.22,17,18.63,34c6.36-10.62,13-21.05,19.43-31.63,3-5.55,8.17-10.86,7.51-17.6-1.19-.24-2.35-.48-3.5-.75-.07-2.52-.07-5,0-7.56,19.75,0,39.5-.1,59.25,0,0,2.44,0,4.89.07,7.34-4.28,1.07-9.49,1.66-11.8,6-3.29,6.24-2.14,13.62-2.47,20.41,0,29,0,58,0,87,.21,6-.27,12.85,3.7,17.9,2.49,3.21,6.82,3.57,10.51,4.43-.06,2.47-.06,5,0,7.46-14.5.7-29,0-43.55.24-5.23-.08-10.46.21-15.66-.24,0-2.52,0-5,0-7.55,4.09-.59,8.83-1.06,11.39-4.8,3.38-5.11,2.57-11.6,2.89-17.44,0-30.37.18-60.78-.1-91.16-12.06,18.92-23.62,38.14-35.47,57.18-3.37,5-5.92,10.54-9.82,15.11q-20.36-35.83-40.8-71.66c-.19,30.19-.09,60.37-.05,90.56.29,6.29-.45,13.47,4,18.59,2.52,3.06,6.71,3,10.29,3.57-.06,2.54-.06,5.06,0,7.6-10.85.6-21.74.11-32.61.27-5.51-.09-11,.24-16.53-.27q.06-3.75,0-7.48c3.55-.68,7.5-1,10.17-3.76,4.13-4,3.8-10.21,4-15.53.14-30.69,0-61.38,0-92.06-.18-6.56.06-13.59-3.16-19.52-2.43-3.63-7.19-3.79-11.06-4.6Q1042.72,29.22,1042.72,25.44Z"/><path class="cls-2" d="M117.63,2.12c22,4.31,42,17.29,55.66,35a96.13,96.13,0,0,1,20,62.06,95.9,95.9,0,0,1-24.67,62.23,94.93,94.93,0,0,1-50.82,29.48c0-14.81-.1-29.64,0-44.46-9.12-.1-18.33.62-27.39-.85A48,48,0,0,1,55.74,118a48.9,48.9,0,0,1,.1-40A47.67,47.67,0,0,1,84.19,52.25c10.74-3.72,22.31-2.35,33.46-2.38,0-15.92-.08-31.82,0-47.75ZM1320,24.67c2.58-1.08,3.2-4.36,5.67-5.65q6.57,26.06,13,52.11c-2.46.75-4.86,1.71-7.34,2.28-3.77-8.93-8.76-18-17.39-23-13.63-8.26-30.27-7.79-45.61-7.27-2.8.41-8-.27-7.3,4.12.33,9.38-.28,18.83.48,28.18,21.54.09,43.72,4,62.41,15.2,12.5,7.51,22.71,20,24.93,34.67,1.34,10.32-.21,21.48-6.24,30.17-4.78,7-12.11,12-20,14.95-13.44,5.21-28.09,5.73-42.34,5.81-21.35-.08-42.71.12-64.06-.09,0-2.59,0-5.16,0-7.74,3.87-.55,8.27-1.13,10.92-4.37,3.89-4.69,3-11.21,3.42-16.85.14-28.68,0-57.35.06-86-.06-7.38.27-15-2.22-22.08-1.82-4.72-7.53-5.41-11.89-5.95,0-2.59-.06-5.2-.06-7.8h87.86c5.23-.06,10.5.25,15.69-.63ZM1261.1,91.35c0,12.92,0,25.85,0,38.79.27,9.47-.63,19,.66,28.46,4,1.48,8.33.9,12.53,1.15,10.51.34,21.53-1.19,30.54-7,6.31-4,11.21-10.56,12.27-18.06,1.14-8.16-1.34-16.61-6-23.34-5.07-7.29-13-11.9-21.06-15.21-9.24-3.47-19.18-4.63-29-4.8ZM1398.82,25.4c0,2.55.06,5.11.13,7.67,2.48.35,6.83.6,6.75,4.07-.23,4.21-1.92,8.15-3.21,12.11q-17.35,45.63-34.67,91.29c-3.23,8.11-6.29,16.49-11.72,23.42-2.56,3.25-6.88,3.74-10.61,4.51,0,2.56,0,5.12,0,7.68q25.59,0,51.18,0,0-4,0-8c-4.79.09-10.79-1.74-11.9-7.07-.54-5.9,1.51-11.65,3.36-17.16,4-10.72,7.78-21.49,11.85-32.17,18.46.93,36.86,9.67,48,24.6,5.29,7.23,9.11,16.73,6.25,25.67-1.49,4.11-5.74,5.95-9.74,6.54q0,3.74-.07,7.48c18.77.33,37.55.07,56.31.13,0-2.49,0-5,0-7.45-2.89-.87-6-1.59-8.15-3.9-2.94-3.54-4.19-8.08-6-12.23q-16.86-48.25-33.65-96.52c-1.83-6-4.74-11.7-5.31-18-.43-3.7,3.64-4.66,6.33-5.54q0-3.63,0-7.26c-18.41,0-36.82-.13-55.22.08Zm22.26,28.69q8.93,25.77,18,51.53a72.47,72.47,0,0,0-33.49-10.94c5.19-13.53,10.21-27.12,15.54-40.59Zm81.41-28.78c19.73,0,39.48,0,59.22,0,0,2.62,0,5.25,0,7.87-5,.1-10.74,1.5-12.6,6.73-2.54,8.29-1.34,17.18-1.63,25.72h59.33a159.35,159.35,0,0,0-.93-22.49c-.66-3.76-2.81-7.74-6.65-9a40.17,40.17,0,0,0-6.7-.94c0-2.65,0-5.28,0-7.92,19.75.05,39.52,0,59.28,0q-.07,3.84,0,7.68c-4.32.73-10,1-12,5.69-2.07,5.89-2.18,12.24-2.36,18.42,0,29.66-.06,59.33,0,89,.55,6.08-.25,12.9,3.69,18,2.43,3.25,6.83,3.63,10.56,4.21,0,2.54,0,5.1,0,7.65-19.75.42-39.5.06-59.25.19q-.06-4,0-8c4.4-.36,10.35-.54,12.14-5.48,2.29-7.95,2.14-16.34,2.14-24.53q0-27.82,0-55.67c-19.78-.06-39.55,0-59.32,0-.09,16.89,0,33.78,0,50.68.07,7.65-.24,15.32.54,22.92a15.5,15.5,0,0,0,4.06,9.43c2.68,2.29,6.39,2.34,9.73,2.85-.06,2.56-.06,5.14,0,7.69-19.77.29-39.55.22-59.3,0,0-2.58,0-5.15,0-7.74,4-.42,8.57-1.3,11.19-4.72,3.55-5.07,2.74-11.57,3.08-17.42.11-29.34,0-58.67.06-88-.11-6.33-.16-12.87-2.42-18.87-1.76-4.74-7.42-5.83-11.88-6.12-.07-2.62-.09-5.25,0-7.87Zm158.46,0c19.77-.08,39.56,0,59.34,0,.07,2.61,0,5.24-.07,7.85-4.76.24-11,1-12.43,6.5-3,11.88-1.4,24.26-1.85,36.38,9.12-7.24,18.24-14.51,26.88-22.33,4.19-3.82,8.62-7.44,12.25-11.83,1.71-2.23,3.62-4.93,2.72-7.91-1.81-.34-3.6-.62-5.39-.81a37.64,37.64,0,0,1-.05-7.87c19.73,0,39.48,0,59.21,0,0,2.63-.06,5.28,0,7.91-10.47,0-20.43,4.24-28.73,10.44-9.42,7-18.48,14.47-27.36,22.14,20.44,19.89,35.26,44.92,46,71.2,4,9,7.13,18.41,12.11,27,2,3.42,6.29,3.82,9.84,4.34,0,2.58,0,5.17,0,7.75q-27.32.27-54.65,0v-7.66c2.45-.61,6.16-.38,7.17-3.3,1.22-4.18-.25-8.52-1.19-12.6-6.89-21.61-18.54-41.46-33-58.85-2.8-3.09-5.14-6.87-8.41-9.38-6,4.11-11.59,9-17.35,13.55q0,20.14,0,40.32a141.35,141.35,0,0,0,.78,19.08,15.05,15.05,0,0,0,3.51,7.88c2.64,2.51,6.5,2.7,10,3.06q.12,3.93.16,7.88c-19.8.22-39.58.18-59.37,0,0-2.57,0-5.12,0-7.68,4.17-.56,8.88-1.53,11.44-5.25,3.42-5,2.38-11.32,2.9-17,.08-27,0-54,0-81-.14-8.81.6-18-2.72-26.36-2.15-4.43-7.51-4.92-11.74-5.87C1661,30.35,1661,27.85,1661,25.34Z"/></g></g></svg>