<svg xmlns="http://www.w3.org/2000/svg" viewBox="0 0 212 27.99"><defs><style>.cls-1{fill:#e2001a;}.cls-2{fill:#fefefe;}</style></defs><title>Ресурс 1</title><g id="Слой_2" data-name="Слой 2"><g id="Слой_1-2" data-name="Слой 1"><g id="Layer_1"><g id="_792843056" data-name=" 792843056"><path d="M61.79,7.92a3.32,3.32,0,0,0-3.28,3.26V14H54V7.92h-.16a3.32,3.32,0,0,0-3.28,3.26V22.3h.15A3.33,3.33,0,0,0,54,19V16.33h4.54v6H62V7.92Z"/><path d="M198.45,7.92a3.32,3.32,0,0,0-3.28,3.26V14h-4.55V7.92h-.15a3.32,3.32,0,0,0-3.28,3.26V22.3h.15A3.32,3.32,0,0,0,190.62,19V16.33h4.55v6h3.43V7.92Z"/><path d="M42.32,19.76c-2.1,0-3.49-3.44-3.49-7.47s1.47-6.85,3.49-6.85,3.57,2.82,3.57,6.85C45.89,16.85,44.57,19.76,42.32,19.76Zm0-17.1c-4,0-6.57,3.44-6.93,8.45H31.33V3h0a3.48,3.48,0,0,0-3.51,3.49V22.3h0a3.56,3.56,0,0,0,3.51-3.57V13.67h4.06c.31,4.7,2.9,8.93,6.93,8.93,4.63,0,7.09-4.47,7.09-10.29C49.41,6.87,46.79,2.66,42.32,2.66Z"/><path d="M74.19,7.92a3.19,3.19,0,0,0-2.94,1.65l-4.49,7.8V7.92H63.33V22.3h1.45a3.23,3.23,0,0,0,3-1.65l4.73-8.06V19a3.33,3.33,0,0,0,3.29,3.26h.15V7.92Z"/><path d="M143.34,7.92a3.2,3.2,0,0,0-3,1.65l-4.48,7.8V7.92h-3.44V22.3h1.46a3.21,3.21,0,0,0,2.94-1.65l4.74-8.06V19a3.32,3.32,0,0,0,3.28,3.26H145V7.92Z"/><path d="M88.11,15.29a6.63,6.63,0,0,0-3.7-3.75L90.6,3H86.74l-6,8.51V3h-.08a3.34,3.34,0,0,0-3.46,3.39V22.3h.07a3.34,3.34,0,0,0,3.47-3.39V13a4.09,4.09,0,0,1,3.74,2.72l2.55,6.58h3.89Z"/><path d="M156.13,7.92H145.79v2.75h3.47V22.3h.16a3.24,3.24,0,0,0,3.23-3.24V10.67h3.48Z"/><path d="M120.51,19.68c1.59-1.69,2.35-4.72,2.71-7.06l.23-2.08h2.67l.82,9.14Zm9.61-.1L128.94,7.92H120.7l-.51,3.49c-.46,3.11-1.19,7-4,8.68l.23,5.95h.18a2.46,2.46,0,0,0,2.46-2.46l0-1.28h9.37l.13,3.74h.18a2.46,2.46,0,0,0,2.46-2.46l.12-3.49Z"/><path d="M209.77,17.7a6.16,6.16,0,0,0-3-3.22l5.09-6.56h-3.71l-4.92,6.48V7.92h-3.45V22.3h.16A3.33,3.33,0,0,0,203.21,19V15.76a3.46,3.46,0,0,1,3,2.33l2.07,4.21H212Z"/><path d="M167.46,19.93h-2.08V13.06a9.22,9.22,0,0,1,1.88-.25c2.48,0,3.94,1.48,3.94,3.32A3.68,3.68,0,0,1,167.46,19.93Zm.16-9.74a9.76,9.76,0,0,0-2.24.27V6h4.56A3,3,0,0,0,172.89,3V3H161.94V22.3h5.57c4.17,0,7.28-2.25,7.28-6.1C174.79,12.9,172.21,10.19,167.62,10.19Z"/><path d="M107.16,14.11c0-2.54.89-3.9,2.82-3.95h.13c1,0,2.72.31,2.82,3.15Zm8.75.62c0-4.32-2.08-6.81-5.83-6.81S104,10.77,104,15.16s2.49,7.34,6.68,7.34a10.47,10.47,0,0,0,4.8-1V18.63A7,7,0,0,1,111,20c-2.15,0-3.34-1.23-3.62-3.56l8.55-1.18Z"/><path d="M183.11,20.55a11.21,11.21,0,0,1-1.9.13c-1.85,0-2.93-.8-2.93-2.57,0-2.38,1.83-3,4.83-3.28Zm-7.88-2.33c0,2.69,2,4.28,5.77,4.28h.72a31.8,31.8,0,0,0,4.49-.38V13c0-3.59-2.41-5.06-5.31-5.06A11.18,11.18,0,0,0,176.1,9v2.29A9.25,9.25,0,0,1,180.34,10c1.64,0,2.77.49,2.77,2.31v1C178.82,13.65,175.23,14.52,175.23,18.22Z"/><path d="M96.24,20.3A3.51,3.51,0,0,1,95,20.12V10.34a4,4,0,0,1,1.44-.23c2.23,0,3.21,1.61,3.21,5.05C99.68,17.47,99.09,20.3,96.24,20.3Zm.3-12.38a10.25,10.25,0,0,0-4.82,1L91.64,9V28h.18A3.23,3.23,0,0,0,95,24.76V22.27a7.64,7.64,0,0,0,1.9.23c3.72,0,6.16-3,6.16-7.44S100.63,7.92,96.54,7.92Z"/><path class="cls-1" d="M12.46,6.18l0,0a.4.4,0,0,0,0-.58c-.07-.07-1.93-1.19-1.93-1.19A.51.51,0,0,1,10.31,4c0-.27.16-.48.54-.58a44.87,44.87,0,0,1,6.81-.5c.49,0,1.35,0,2.11,0l0,0a12,12,0,0,0-17,16.75c1.5-2.16,5.21-7.49,6-8.58.93-1.25,3.07-4,3.43-4.52l0,0Z"/><path class="cls-1" d="M4.67,21.46A12,12,0,0,0,23.94,12a11.85,11.85,0,0,0-1.36-5.54h0a1.66,1.66,0,0,0,.58-1.82,5.49,5.49,0,0,0-.69-.89l0,0a1.65,1.65,0,0,1-.7,1.81c-.23.21-3.27,3.07-6.83,6.19-3.14,2.74-6.65,5.54-8.69,7.06C3.41,21,2.85,21.28,2.85,21.28a.73.73,0,0,1-.29.07.55.55,0,0,1-.43-.2h0a.1.1,0,0,0,0,.09c.31.49.82,1.07,1.12,1.07a.74.74,0,0,0,.29-.08A13.55,13.55,0,0,0,4.67,21.46Z"/><path class="cls-2" d="M12.48,6.15a.42.42,0,0,0,0-.58c-.08-.06-1.93-1.19-1.93-1.19A.49.49,0,0,1,10.3,4c0-.27.17-.48.54-.58a45,45,0,0,1,6.81-.5c.68,0,2,0,2.89.05s1.73.27,1.91.74a1.61,1.61,0,0,1-.66,1.9c-.23.21-3.27,3.07-6.83,6.19-3.14,2.75-6.66,5.54-8.69,7.06C3.4,21,2.85,21.28,2.85,21.28a.73.73,0,0,1-.3.07.52.52,0,0,1-.43-.82S7.75,12.4,8.78,11s3.49-4.59,3.49-4.59S12.3,6.41,12.48,6.15Z"/></g></g></g></g></svg>