<svg xmlns="http://www.w3.org/2000/svg" viewBox="0 0 175.75 36.24"><defs><style>.cls-1{fill:#003374;}.cls-1,.cls-2{fill-rule:evenodd;}.cls-2{fill:#fefefe;}.cls-3{fill:none;stroke:#003374;stroke-miterlimit:22.93;stroke-width:0.87px;}</style></defs><title>Ресурс 1</title><g id="Слой_2" data-name="Слой 2"><g id="_1" data-name="1"><path class="cls-1" d="M37.4,30.17H33.12l2-3.45-4.84-8.63h4.34l2.52,5.13,2.52-5.13h4.28L37.4,30.17Zm54.09,0H86.14c-3,0-5.29-2.45-5.29-5.89,0-3.88,2.33-6.19,5.29-6.19h5.35v3H88c-2.08,0-3.27.63-3.27,3.13S86,27.16,88,27.16h3.46v3Zm14.05,0h-4V21.65L97,30.17H92.31V18.09h3.91v8.26l4.53-8.26h4.79V30.17Zm-51.07,0h4.15l1-2.51H64l.94,2.51h6.55l3.15-8.7,3.08,8.7h4.16l-5.1-12.08H72.41l-4.21,10L64,18.09H59.57l-5.1,12.08Zm7.3-8.7L63,24.91H60.51l1.26-3.44Zm-13.66,8.7H44.2V18.09h8.13a3.73,3.73,0,0,1,4.09,4.13c0,.81,0,4.44-4.09,4.44H48.11v3.51Zm0-6.51h2.83c.44,0,1.58,0,1.58-1.32s-1.14-1.25-1.58-1.25H48.11v2.57Zm69.71-5.57v3h-7.56v1.56h4c4.15,0,4.15,2.38,4.15,3.7s0,3.82-4.09,3.82h-8V18.09Zm-7.56,7.38v1.88h3.34c.88,0,.88-.69.88-1s0-.88-.88-.88ZM12.59,12.08a2.14,2.14,0,0,1,.89.12L13.41,4h1a76.88,76.88,0,0,0,.31,8.38,12,12,0,0,1,3.91,21.84c-.06-.06-.19-.25-.32-.37h0c-3.59-4.57-4.47-11.39-4.72-17.34a11.59,11.59,0,0,0,1.51.25A25.4,25.4,0,0,0,21.6,30.29a8,8,0,0,0-.51-10.76,11.93,11.93,0,0,0-5.79-3.45,13.32,13.32,0,0,0-3.21-.37,14.06,14.06,0,0,0-3.21.37C4.22,17.27.76,20.9.76,25.22a8.67,8.67,0,0,0,1.76,5.07A24.9,24.9,0,0,0,9,16.77a14.27,14.27,0,0,0,1.58-.25c-.25,5.95-1.13,12.71-4.72,17.28v-.07a3.81,3.81,0,0,1-.38.5,12,12,0,0,1,4-21.84C9.82,6.26,9.76,4,9.76,4h1L10.7,12.2a2,2,0,0,1,.82-.12V0h1.07V12.08Zm.07,4.38H11.52c-.06,5.63-.56,12.7-2.33,17.46-.25.56-.5,1.13-.81,1.75a13.66,13.66,0,0,0,3.71.57,14.57,14.57,0,0,0,3.72-.57,16,16,0,0,1-.76-1.56C13.16,29.29,12.78,22.15,12.66,16.46Z"/><path class="cls-1" d="M148.1,25.85a1.82,1.82,0,0,1-.81,1.62,3.69,3.69,0,0,1-2.33.63H142.5V20.21h5.1v.63h-4.22v2.82H145a3.15,3.15,0,0,1,2.58.87A1.66,1.66,0,0,1,148.1,25.85Z"/><path class="cls-1" d="M148.1,25.85a1.82,1.82,0,0,1-.81,1.62,3.69,3.69,0,0,1-2.33.63H142.5V20.21h5.1v.63h-4.22v2.82H145a3.15,3.15,0,0,1,2.58.87A1.66,1.66,0,0,1,148.1,25.85Z"/><path class="cls-2" d="M147.16,25.85a1.45,1.45,0,0,0-.23-.84h0l0-.06h0a1.15,1.15,0,0,0-.37-.3l0,0h0l-.05,0h0l0,0h0l-.1,0h0l-.05,0h0l-.05,0h0l-.06,0h0l0,0h0l-.06,0h0l-.15,0h-2.47v3.19h2.76l0,0h.13l0,0h0l0,0h0l0,0h0l.09-.06h0l0,0h0l0,0h0l0,0h0l0,0h0l0,0h0v0h0l0,0h0l0,0h0v0h0l0,0h0A1.45,1.45,0,0,0,147.16,25.85Z"/><polygon class="cls-1" points="157.93 28.1 157.11 28.1 156.1 25.91 151.88 25.91 150.94 28.1 150.06 28.1 153.39 20.21 154.4 20.21 157.93 28.1"/><polygon class="cls-1" points="157.93 28.1 157.11 28.1 156.1 25.91 151.88 25.91 150.94 28.1 150.06 28.1 153.39 20.21 154.4 20.21 157.93 28.1"/><polygon class="cls-1" points="155.85 25.28 154.21 21.65 153.9 20.97 153.65 21.65 152.13 25.28 155.85 25.28"/><polygon class="cls-2" points="155.85 25.28 154.21 21.65 153.9 20.97 153.65 21.65 152.13 25.28 155.85 25.28"/><polygon class="cls-1" points="166.49 28.1 165.67 28.1 165.67 24.34 161.01 24.34 161.01 28.1 160.19 28.1 160.19 20.21 161.01 20.21 161.01 23.66 165.67 23.66 165.67 20.21 166.49 20.21 166.49 28.1"/><polygon class="cls-1" points="166.49 28.1 165.67 28.1 165.67 24.34 161.01 24.34 161.01 28.1 160.19 28.1 160.19 20.21 161.01 20.21 161.01 23.66 165.67 23.66 165.67 20.21 166.49 20.21 166.49 28.1"/><line class="cls-3" x1="130.09" y1="14.96" x2="130.09" y2="33.11"/><polygon class="cls-1" points="175.75 28.1 174.68 28.1 170.58 24.09 170.52 28.1 169.77 28.1 169.77 20.21 170.52 20.21 170.52 23.78 174.36 20.21 175.31 20.21 171.34 23.91 175.75 28.1"/><polygon class="cls-1" points="175.75 28.1 174.68 28.1 170.58 24.09 170.52 28.1 169.76 28.1 169.76 20.21 170.52 20.21 170.52 23.78 174.36 20.21 175.31 20.21 171.34 23.91 175.75 28.1"/></g></g></svg>