<svg xmlns="http://www.w3.org/2000/svg" viewBox="0 0 776.48 154.94"><defs><style>.cls-1{fill:#fff;}.cls-1,.cls-2{fill-rule:evenodd;}.cls-2,.cls-3{fill:#002e64;}</style></defs><title>Ресурс 1</title><g id="Слой_2" data-name="Слой 2"><g id="Слой_1-2" data-name="Слой 1"><path class="cls-1" d="M153.63,77.48A76.15,76.15,0,1,1,77.47,1.31a76.15,76.15,0,0,1,76.16,76.17Z"/><path class="cls-2" d="M0,77.48A77.48,77.48,0,1,0,77.47,0,77.56,77.56,0,0,0,0,77.48Zm2.67,0a74.81,74.81,0,1,1,74.8,74.79A74.9,74.9,0,0,1,2.67,77.48Z"/><path class="cls-2" d="M24.13,56.24c19.81-13,41.71-20.56,78.83-14.15,2.05-1.19,3.17-2.3,3.7-4.74-9.27-3.33-19.31-4.51-32.32-4.3-11.68.33-32.7,4.66-43.93,11.31l3.42-4.27c7.86-4.59,28.31-10.72,43.64-11,10.83-.2,16.44.4,29.29,3.87-1.12-2.21-3.8-3.31-7.68-5.06-12.44-5.58-35.69-6.1-54.74,2.29a57.49,57.49,0,0,1,7.86-4.47c6.27-2.86,16.54-5.65,29.41-5.42,10.26.16,22.44,3.74,29.91,11.14a11,11,0,0,1,2.28,4.27c5.92,3,9.33,5.79,11.27,9.11a9.2,9.2,0,0,1,.76,5.62,14.61,14.61,0,0,1,4.84,4.34A10.14,10.14,0,0,1,132.36,59a7.37,7.37,0,0,1-1.48,6.37,8.73,8.73,0,0,1,3.87,5c.93,4.46-1.93,8.8-5.72,12.17-4.34,3.82-13.93,8.34-21.74,10.34-15.53,3.9-29.22,5.57-40.14,7.57a87.21,87.21,0,0,0,22.39,2.74c23.14,0,43.62-10.95,43.62-10.95s-.47,1.44-.92,2.7c-14.69,8.88-38.12,12.65-48.08,12.19a106.42,106.42,0,0,1-27-4.54,47.48,47.48,0,0,0-7.51,2.56c12.72,5.78,22.31,7.08,33.19,7.86,11.07.82,29.42-1.84,44.93-7.45-.71.69-1.08,1.82-1.8,2.48-7.92,4.15-24.7,8.34-33.13,8.69a127,127,0,0,1-27.49-1.65,92.46,92.46,0,0,1-20.43-6.77,4.84,4.84,0,0,0-2,3.26c25.5,13.32,49.4,13.61,76.57,5.18L117,119.19C87,131.31,63.63,126.6,45.54,117.88A14.21,14.21,0,0,1,43.7,117c1.66,2.92,15.5,13,31,14.28,10.66.88,23.67-1,31.39-4l-4.51,2.35A54.83,54.83,0,0,1,74,134.67c-18.45-1.24-28.83-9.39-33.49-13.66a13.11,13.11,0,0,1-3.83-7.16,21.59,21.59,0,0,1-9-7.84c-1.29-2-1-4.21-.7-6.09a7.65,7.65,0,0,1,.48-1.67c-2-1.46-4-3-4.9-4.57-1.82-3.29-.69-6.12.56-8.31a12.66,12.66,0,0,1-2.56-3.75,11.28,11.28,0,0,1-.44-4.55,14.39,14.39,0,0,1,3.72-7.49c4-4.65,10.37-8.26,21.24-11.86,10.62-3.52,14.9-4,22.91-5.9C77.41,49.64,88.6,49,98,45.68c-26.11-4.59-53.24-.43-75.35,14.79l1.5-4.23Zm88.94-16.11c-.32,1.29-1.71,2.77-2.66,3.78a84,84,0,0,1,8.46,2.84c-.33-2.52-3.28-5-5.8-6.62ZM32.63,92.3a46.15,46.15,0,0,1-4.24-2.57c-.76,1.65.67,3.47,2.19,4.35.64-.65,1.39-1.18,2.05-1.78Zm88-34.13a38.58,38.58,0,0,1,5.22,2.77c1.18-2.25.45-3.72-2-5.8a20.42,20.42,0,0,1-3.2,3Zm-5.58,3.43A101.89,101.89,0,0,1,98,67.17c-6.41,1.6-22.07,3.84-38.88,7.5-5.34,1.15-19.74,4.56-26.83,10.59a30.48,30.48,0,0,0,5.4,3.2,44.67,44.67,0,0,1,12.83-5.23,242.88,242.88,0,0,1,27.3-5.42c9.23-1.44,26.54-5.06,36.14-8.5a30.84,30.84,0,0,0,8.2-4.26c-.67-.75-6.84-3.72-7-3.45ZM42.41,101.76A36.78,36.78,0,0,1,47.5,99.3q-4-1.68-8.25-3.62A20.77,20.77,0,0,0,36,98.16c2.14,1.24,4.27,2.46,6.45,3.6Zm-8.87.88c0,1.71,1,3.26,3.32,5.14a7.45,7.45,0,0,1,1.38-2.51c-1.6-.81-3.18-1.71-4.7-2.63Zm13-31.9c18.89-5.54,38.74-7.25,58.83-12.58C97.56,56,93.26,55.14,85,56.1a229.33,229.33,0,0,0-36.64,7.41c-4.45,1.34-27.87,8-21.12,17.24,0,.12,4-5.51,19.38-10ZM117.45,51.4a75.8,75.8,0,0,0-11-3.84,25.58,25.58,0,0,1-7,3.93A117.27,117.27,0,0,1,112.66,55c.78.39,4.25-2.87,4.79-3.64Zm9.32,18.19c-.58.49-1.2,1-1.91,1.5-4.28,3.3-11,5.94-20.41,8.43-19.45,5.24-33.57,6-49.64,9.94a66.67,66.67,0,0,0-9.42,3.05c3,1.51,6.25,2.92,9.56,4.18a138.91,138.91,0,0,1,19.11-4.32c3.59-.62,14.68-2.55,22.7-4.25,14.46-3.09,35.65-9.77,30-18.53Z"/><path class="cls-2" d="M231.54,92.06h17.25l2.09-12.64h11.87l2.08,12.64h17.24L267.51,18.85h-21.4L231.54,92.06Zm381.2.14H630l2.08-12.65h11.86L646,92.2h17.23L648.7,19H627.29L612.74,92.2Zm-46.42-.14h20.3c4.39,0,22.75-1.81,22.8-24,0-18.72-14.25-22-23.46-22h-3V36.44h22.47V18.85H566.32V92.06ZM465.4,93c20.14,0,26.93-18.8,26.93-37.59s-6.79-37.57-26.93-37.57-26.93,18.78-26.93,37.57S445.26,93,465.4,93Zm-76.17-.91,17,0V67.93h5.7c16.83,0,22-15.1,22-24.7s-5.93-24.38-22-24.35l-22.7,0V92.06ZM256.81,41,260,63.31H253.6L256.81,41ZM638,41.1l3.21,22.33h-6.42L638,41.1ZM500.49,18.88h14.42l12.74,17.24,12.82-17.24h14.4V92.09h-17V47.41L527.65,60.23,517.47,47.41V92.1h-17V18.88Zm-301.82,0,34.83,0,0,18.28H216v55l-17.3,0V18.88Zm528.17,0h16.63l0,26.36h3.61l9.54-26.36h18.07l-13,34.76,14.8,38.45H756.93l-9.55-29.42h-3.94l0,29.42H726.84V18.85Zm-56.28,0h16.63V45.22h11.87V18.85h16.61V92.06H699.06V62.79H687.19V92.06H670.56V18.85ZM583,77.42V60.77h2.48c2,0,7.35.11,7.35,7.63,0,7.73-5.37,9-7.35,9ZM465.4,75.26c-6,0-9.08-7-9.08-19.88s3.11-19.88,9.08-19.88,9.07,7,9.07,19.88-3.08,19.88-9.07,19.88ZM406.24,35h4c3.87,0,6.27,2.3,6.27,8.38,0,7.93-4.07,8.47-6.27,8.47h-4V35ZM333.18,18.85h46.35V92.06h-17V36.49H350.17v55.6l-17,0V18.85ZM298.31,47.23c2.74,0,7.82-1.78,7.82-7.16,0-6.38-5.84-6.81-7.48-6.81a22.62,22.62,0,0,0-9.36,2.06l-.13-15.83A53.72,53.72,0,0,1,304,17.58c13.87,0,20.13,9.75,20.13,19.21,0,9.25-5.38,14.89-10.51,17.05v.7c4.92,1.55,11.62,6.35,11.62,17.57,0,13.8-9.65,21.43-22,21.43-6.64,0-10.93-1-16.08-3.81l.29-15.2a25.44,25.44,0,0,0,11.26,2.22c5.46,0,7.65-4,7.65-7,0-4.12-2.61-6.86-8.4-6.86h-6.94V47.23Z"/><path class="cls-3" d="M198.67,111.75h6.92a13,13,0,0,1,3.67.39,3.83,3.83,0,0,1,2.08,1.69,5.9,5.9,0,0,1,.84,3.25c0,2.27-1,3.72-2.89,4.37a4.8,4.8,0,0,1,3.44,5,5.78,5.78,0,0,1-.93,3.34,4.58,4.58,0,0,1-2.31,1.81,13.16,13.16,0,0,1-3.9.45h-6.92V111.75Zm4.28,8.18h1.44c1.43,0,2.34-.26,2.71-.77a2.93,2.93,0,0,0,.55-1.77,2.57,2.57,0,0,0-.55-1.63,3,3,0,0,0-2.39-.73H203v4.9Zm0,8.6h2.18c2.05,0,3.07-.88,3.07-2.64a2.47,2.47,0,0,0-.76-2.07,3.71,3.71,0,0,0-2.31-.6H203v5.31Zm18.48-16.78H228l2.86,12.52,3.22-12.52h6.34V132h-4.17v-17l-4.14,17h-3.24l-3.78-17v17h-3.63V111.75Zm26.37,0h4.49L258.07,132h-4.55l-1-4.19h-5.7l-1,4.19h-4.09l6.08-20.27Zm3.86,12.61-2-8.27-2,8.27Zm17.76.28,4.11.25a8.6,8.6,0,0,1-2.09,5.37,6.36,6.36,0,0,1-4.95,2.07,6.55,6.55,0,0,1-5.7-2.77,13.09,13.09,0,0,1-2-7.65q0-4.92,1.95-7.69a6.58,6.58,0,0,1,5.77-2.78q6.34,0,6.91,7.84l-4.07.3q-.17-4.52-2.82-4.52a2.49,2.49,0,0,0-2.22,1.46q-.83,1.45-.83,5.64a12.09,12.09,0,0,0,.76,5.15,2.45,2.45,0,0,0,2.27,1.4c1.63,0,2.58-1.36,2.87-4.07Zm6.87,7.38V111.75h4.45v16.47h3.72V111.75h4.45v16.47h3.71V111.75h4.44V132Zm22.48-20.27h12.64v3.8h-4.15V132h-4.45V115.55h-4v-3.8Zm17.18,0h4.49L326.23,132h-4.56l-1-4.19H315L314,132h-4.09L316,111.75Zm3.86,12.61-2-8.27-2,8.27Zm8.11-12.61h11.52v3.48h-7.07v4h1.56q4.17,0,5.79,1.66a8,8,0,0,1,.53,8.78,4.63,4.63,0,0,1-2.52,1.94,15.41,15.41,0,0,1-4,.4h-5.83V111.75Zm4.45,11v5.8h1.38a3.12,3.12,0,0,0,2.18-.64,2.89,2.89,0,0,0,.69-2.19,3.79,3.79,0,0,0-.54-2.16c-.35-.55-1.13-.81-2.33-.81Zm15.65-11h4.49L358.3,132h-4.56l-1-4.19H347L346,132h-4.09L348,111.75Zm3.87,12.61-2-8.27-2,8.27Zm6.33-12.61h5L365.6,117l2.55-5.27h4.27l-4.78,9.17L373,132h-4.89l-2.95-6.62L361.87,132h-4.26l5.57-10.39-5-9.88ZM390,124.64l4.12.25a8.66,8.66,0,0,1-2.09,5.37,6.36,6.36,0,0,1-4.95,2.07,6.53,6.53,0,0,1-5.7-2.77,13.09,13.09,0,0,1-2-7.65q0-4.92,1.95-7.69a6.61,6.61,0,0,1,5.78-2.78q6.34,0,6.9,7.84l-4.07.3c-.1-3-1.05-4.52-2.82-4.52a2.47,2.47,0,0,0-2.21,1.46c-.56,1-.83,2.85-.83,5.64,0,2.5.25,4.21.76,5.15a2.44,2.44,0,0,0,2.27,1.4c1.62,0,2.58-1.36,2.86-4.07Zm5-12.89H407.6v3.8h-4.14V132H399V115.55h-4v-3.8Zm14.18,0H415a14.61,14.61,0,0,1,4.12.45,4.43,4.43,0,0,1,2.46,2,7.12,7.12,0,0,1,1,3.88,7.55,7.55,0,0,1-.8,3.69,4.8,4.8,0,0,1-2.22,2.1,11,11,0,0,1-4.35.64H413.6V132h-4.45V111.75ZM413.6,115v6H415c1.22,0,2-.28,2.36-.84a4.14,4.14,0,0,0,.53-2.2,3.7,3.7,0,0,0-.41-1.85,1.93,1.93,0,0,0-.95-.9A4.42,4.42,0,0,0,415,115Zm14-3.28h4.49L437.88,132h-4.56l-1-4.19h-5.7l-1,4.19h-4.09l6.08-20.27Zm3.86,12.61-2-8.27-2,8.27Zm8.11-12.61H444v8.18h4.87v-8.18h4.46V132h-4.46v-8.29H444V132h-4.45V111.75ZM457.18,132V111.75h4.45v7.49h1.58q4.16,0,5.77,1.66a8,8,0,0,1,.53,8.78,4.63,4.63,0,0,1-2.52,1.94,15.36,15.36,0,0,1-4,.4Zm4.45-3.28H463a4.38,4.38,0,0,0,1.53-.21,1.94,1.94,0,0,0,1-.91,3.76,3.76,0,0,0,.4-1.83,4.14,4.14,0,0,0-.53-2.22c-.36-.56-1.14-.84-2.36-.84h-1.38v6Zm11.09-17h4.46V132h-4.46V111.75Zm8.18,15.79h4.15v4.08l-2.51,5.19H480.9l2-4.79h-2v-4.48Zm13.54-15.79h6.92a13.11,13.11,0,0,1,3.68.39,3.87,3.87,0,0,1,2.08,1.69,5.9,5.9,0,0,1,.84,3.25c0,2.27-1,3.72-2.9,4.37a4.8,4.8,0,0,1,3.44,5,5.78,5.78,0,0,1-.93,3.34,4.54,4.54,0,0,1-2.31,1.81,13.07,13.07,0,0,1-3.9.45h-6.92V111.75Zm4.28,8.18h1.44c1.44,0,2.34-.26,2.71-.77a2.94,2.94,0,0,0,.56-1.77,2.58,2.58,0,0,0-.56-1.63,2.94,2.94,0,0,0-2.38-.73h-1.77v4.9Zm0,8.6h2.18c2.05,0,3.08-.88,3.08-2.64a2.47,2.47,0,0,0-.77-2.07,3.71,3.71,0,0,0-2.31-.6h-2.18v5.31Zm22.94,1.41V132h-4.45V111.75h4.45v11.38l.67-1.23,4.52-7.91v-2.24h4.46V132h-4.46v-10.5l0-.8-.71,1.34-4.5,7.88Zm13.48-18.19h4.46v8.18h4.87v-8.18h4.45V132h-4.45v-8.29H539.6V132h-4.46V111.75Zm15.34,0h12.64v3.8H559V132h-4.45V115.55h-4v-3.8Zm14.18,0H577v3.48h-7.87v4.7h6.12v3.49h-6.12v5H577V132H564.66V111.75Zm14.51,0H585a14.61,14.61,0,0,1,4.12.45,4.43,4.43,0,0,1,2.46,2,7.12,7.12,0,0,1,1,3.88,7.55,7.55,0,0,1-.8,3.69,4.8,4.8,0,0,1-2.22,2.1,11.07,11.07,0,0,1-4.36.64h-1.57V132h-4.45V111.75Zm4.45,3.28v6H585c1.22,0,2-.28,2.36-.84a4.14,4.14,0,0,0,.53-2.2,3.59,3.59,0,0,0-.42-1.85,1.88,1.88,0,0,0-.94-.9A4.42,4.42,0,0,0,585,115Zm11.09-3.28H607v3.48h-7.87v4.7h6.11v3.49h-6.11v5H607V132H594.71V111.75Zm24.36,12.89,4.12.25a8.66,8.66,0,0,1-2.09,5.37,6.36,6.36,0,0,1-5,2.07,6.55,6.55,0,0,1-5.7-2.77,13.09,13.09,0,0,1-2-7.65q0-4.92,1.94-7.69a6.61,6.61,0,0,1,5.78-2.78q6.35,0,6.9,7.84l-4.07.3c-.1-3-1-4.52-2.81-4.52a2.47,2.47,0,0,0-2.22,1.46c-.56,1-.83,2.85-.83,5.64,0,2.5.25,4.21.76,5.15a2.44,2.44,0,0,0,2.27,1.4c1.62,0,2.58-1.36,2.86-4.07Zm10.55-12.89h4.48L639.89,132h-4.56l-1-4.19h-5.7l-1,4.19h-4.09l6.09-20.27Zm3.86,12.61-2-8.27-2,8.27Zm6.33-12.61h5l2.42,5.27,2.56-5.27H654l-4.78,9.17,5.4,11.1h-4.88l-3-6.62L643.47,132h-4.26l5.56-10.39-5-9.88Zm22,0h4.45v8.45l4.93-8.45h4.5l-5.08,7.46L676.07,132h-4.6l-3.56-9.34-1.7,2.45V132h-4.45V111.75Zm19.63,0h4.48L691.66,132H687.1l-1-4.19h-5.7l-1,4.19H675.3l6.09-20.27Zm3.86,12.61-2-8.27-2,8.27ZM708,120.48,714.44,132h-4.71l-4.8-8.83-.19.13V132h-4.45v-8.7l-.15-.13L695.28,132H691l6-10.54-5.57-9.73h4.66l3.9,7.41.31.08v-7.49h4.45v7.49l.16-.08,4-7.41h4.32L708,120.48Zm6.05,7.84,4.41-16.57h5.72l4,16.57h1.26v7.82h-3.29l-.4-4.12h-9.28l-.39,4.12h-3.3v-7.82Zm4,0h5.56L721.25,116h-.56l-2.56,12.29Zm26.77-6.44q0,10.45-7.34,10.45a6.28,6.28,0,0,1-5.51-2.66q-1.86-2.67-1.86-7.79,0-10.44,7.35-10.44a6.35,6.35,0,0,1,5.48,2.61c1.26,1.75,1.88,4.35,1.88,7.83Zm-4.69,0q0-4.09-.64-5.46a2.18,2.18,0,0,0-4.05,0q-.64,1.36-.64,5.45a15.37,15.37,0,0,0,.63,5.42,2.18,2.18,0,0,0,4,.06q.65-1.35.65-5.48Zm20.12-10.13v3.48h-7.87V132H748V111.75Zm16,10.13q0,10.45-7.35,10.45a6.3,6.3,0,0,1-5.51-2.66q-1.86-2.67-1.86-7.79,0-10.44,7.36-10.44a6.35,6.35,0,0,1,5.48,2.61c1.25,1.75,1.88,4.35,1.88,7.83Zm-4.69,0q0-4.09-.64-5.46a2.18,2.18,0,0,0-4,0q-.65,1.36-.64,5.45a15.37,15.37,0,0,0,.63,5.42,2.18,2.18,0,0,0,4,.06q.65-1.35.65-5.48Z"/></g></g></svg>