<svg xmlns="http://www.w3.org/2000/svg" viewBox="0 0 364.94 55.83"><defs><style>.cls-1{fill:#575756;}.cls-2{fill:#00b3e2;}</style></defs><title>openbank</title><g id="Слой_2" data-name="Слой 2"><g id="Слой_1-2" data-name="Слой 1"><path class="cls-1" d="M211.37,16h21v4.69h-1.52a2.68,2.68,0,0,0-2.66-2.41h-3.67V39.88h-5.19V18.23h-3.8a2.63,2.63,0,0,0-2.66,2.41h-1.52V16Z"/><path class="cls-1" d="M255.29,16h3.79V39.88H254V23.17L241.49,39.88h-3.8V20.38a3,3,0,0,0-2.4-3.16V16h7.46V32.79L255.29,16Z"/><path class="cls-1" d="M145.43,39.88h-6.58L134.17,31s-1.39-2.66-2.91-2.66h-1.9V39.88h-5.19V20.38a2.88,2.88,0,0,0-2.53-3V16h7.72V26h2.28a4,4,0,0,0,2.78-2.15C138.48,17.22,138,16,139.74,16h5.06V17.6c-3.54,0-4.56,7.22-8,9.49,1.66.63,2.28,2.16,6,8.86,0,0,.88,2.28,2.65,2.28v1.65Z"/><path class="cls-1" d="M270,25.45h12.4V24.18a6.2,6.2,0,1,0-12.4,0v1.27Zm16.83,9.24h0a12.82,12.82,0,0,1-10.63,5.57c-6.33,0-12.41-4.94-12.41-11.4V27.47c0-7,5.57-11.9,12.41-11.9a12.18,12.18,0,0,1,12.15,12.28H270v3.93c0,3.41,2.78,6.2,6.83,6.2a10.23,10.23,0,0,0,7.85-3.55l2.15.26Z"/><path class="cls-1" d="M163.31,15.57c-2.91,0-5.69,1.26-7,3V16h-7.59v1.4a2.94,2.94,0,0,1,2.4,3V50.77h5.19V37.34a8.58,8.58,0,0,0,6.58,2.92c6.71-.13,11.26-5.32,11.26-11.78V27c0-7-4.29-11.39-10.88-11.39Zm4.81,16.08h0a5.87,5.87,0,0,1-5.44,6.08h-.5c-2.92,0-5.45-2.15-5.83-4.43V23A6,6,0,0,1,162.18,18h1s4.81.25,4.94,6.08v7.59Z"/><path class="cls-1" d="M84.44,15.57c-9,0-12.66,7-12.66,11.52v2c0,5.31,5.19,11.14,12.66,11.14,7,0,12.78-5.19,12.78-11.27V27.34c0-6.07-4.81-11.77-12.78-11.77Zm6.58,16h0A6.43,6.43,0,0,1,84.44,38,6.32,6.32,0,0,1,78,31.52v-7.6a6.53,6.53,0,0,1,13,.13v7.47Z"/><path class="cls-1" d="M207.83,16h-7.59v1.4a3.06,3.06,0,0,1,2.53,3.16V39.88h5.06V16Z"/><path class="cls-1" d="M185.55,25.07V16H178v1.4a2.76,2.76,0,0,1,2.28,3v19.5H192c4.56,0,7.85-2.79,7.85-6.71V32c0-4.31-3.16-7-8.11-7Zm0,12.4h0v-10H190a4.37,4.37,0,0,1,4.3,4.69v1a4.55,4.55,0,0,1-4.43,4.3Z"/><path class="cls-1" d="M98.11,16h21v4.69H117.6a2.67,2.67,0,0,0-2.66-2.41h-3.67V39.88h-5.19V18.23h-3.8a2.61,2.61,0,0,0-2.65,2.41H98.11V16Z"/><path class="cls-2" d="M27.91,0A27.92,27.92,0,1,0,55.83,27.91,27.92,27.92,0,0,0,27.91,0ZM22,41.61h0a2.42,2.42,0,0,1,1.18,1.59,2.49,2.49,0,0,1-.3,1.88,2.23,2.23,0,0,1-2,1.06,3.29,3.29,0,0,1-1.36-.31l-1.31-.62A17.79,17.79,0,0,1,9,29.31v-2.8A17.84,17.84,0,0,1,18.27,10.6L19.55,10a3.28,3.28,0,0,1,1.36-.3,2.26,2.26,0,0,1,2,1.06,2.49,2.49,0,0,1,.3,1.88A2.38,2.38,0,0,1,22,14.24,9.53,9.53,0,0,0,16.53,23v9.9A9.54,9.54,0,0,0,22,41.61Zm24.78-12.3h0a17.79,17.79,0,0,1-9.23,15.9l-1.31.62a3.25,3.25,0,0,1-1.36.31,2.23,2.23,0,0,1-2-1.06,2.58,2.58,0,0,1-.3-1.88,2.42,2.42,0,0,1,1.18-1.59,9.55,9.55,0,0,0,5.52-8.74V23a9.53,9.53,0,0,0-5.48-8.73,2.44,2.44,0,0,1-1.22-1.61,2.58,2.58,0,0,1,.3-1.88,2.25,2.25,0,0,1,2-1.06,3.24,3.24,0,0,1,1.36.3l1.28.61a17.82,17.82,0,0,1,9.26,15.91v2.8Z"/><path class="cls-1" d="M324.28,28.29h-1.43v4.18h1.33c1.61,0,2.57-.66,2.57-2.14s-.85-2-2.47-2Zm-.18,5.6h-2.86V22.07h6.11l.24,1.48h-4.74v3.32h1.52c2.5,0,4,1.22,4,3.41,0,2.42-1.71,3.61-4.28,3.61Z"/><path class="cls-1" d="M333.59,28.93h3.78l-1.89-5-1.89,5ZM334.71,22h1.61l4.56,11.65-1.59.35-1.39-3.67h-4.82l-1.31,3.55h-1.69L334.71,22Z"/><polygon class="cls-1" points="351.03 33.89 351.03 28.45 345.05 28.45 345.05 33.89 343.44 33.89 343.44 22.07 345.05 22.07 345.05 26.97 351.03 26.97 351.03 22.07 352.64 22.07 352.64 33.89 351.03 33.89 351.03 33.89"/><polygon class="cls-1" points="362.59 22.07 357.69 27.38 357.69 22.07 356.07 22.07 356.07 33.9 357.69 33.9 357.69 27.9 363.15 34.02 364.94 33.64 359.44 27.63 364.64 22.07 362.59 22.07 362.59 22.07"/><polygon class="cls-1" points="304.28 55.83 305.28 55.83 305.28 0 304.28 0 304.28 55.83 304.28 55.83"/></g></g></svg>