<svg xmlns="http://www.w3.org/2000/svg" viewBox="0 0 305.92 50.77"><defs><style>.cls-1,.cls-3{fill:#1b3f92;}.cls-2{fill:#ea5b0c;}.cls-3{fill-rule:evenodd;}</style></defs><title>psb</title><g id="Слой_2" data-name="Слой 2"><g id="Слой_1-2" data-name="Слой 1"><path class="cls-1" d="M35.37,19.52v-.05a3.14,3.14,0,0,0,2.28-3.27c0-2.41-1.95-3.52-4.71-3.52H28.25v5.77H25.5c-3.7,0-4.46,2.6-4.46,4,0,2,1.16,2.91,3.3,4,1.3.66,2.86,1.06,2.86,2.54,0,.79-.72,1.73-2.28,1.73H22a4.61,4.61,0,0,0,.61-2.27c0-.92-.32-4.63-5.48-4.63H12.94V38.08h2.87V31.86L17,33h7.84c3.66,0,5.4-1.88,5.4-4.13a4.32,4.32,0,0,0-.4-2h2.95c4.53,0,5.58-2.25,5.58-4a3.31,3.31,0,0,0-3-3.39ZM17.15,30.7H15.81V26h1.34a2.17,2.17,0,0,1,2.43,2.25,2.29,2.29,0,0,1-2.43,2.42Zm11.1-8.85v3.46a20.71,20.71,0,0,0-2.31-1.11c-.91-.4-1.89-.9-1.89-2.05,0-.58.36-1.45,2.1-1.45h3.23l-1.13,1.15Zm2.87-6.93h1.31c2.21,0,2.32,1.36,2.32,1.77,0,.62-.33,1.76-2.21,1.76H31.12V14.92Zm1.64,9.76H31.12v-4h1.64c2,0,2.53,1,2.53,2s-.72,2-2.53,2Z"/><path class="cls-1" d="M50.8,12.36A12.36,12.36,0,0,0,38.44,0H21A12.36,12.36,0,0,0,9.08,9.05H30.19c8.12,0,11.57,3.77,11.57,12.64v20a12.39,12.39,0,0,0,9-11.89V12.36Z"/><path class="cls-2" d="M0,38.41A12.36,12.36,0,0,0,12.36,50.77H29.82a12.36,12.36,0,0,0,11.9-9.05H20.61c-8.12,0-11.56-3.78-11.56-12.64v-20A12.39,12.39,0,0,0,0,20.94V38.41Z"/><polygon class="cls-3" points="269.56 38.05 269.56 19.66 274.89 19.66 274.89 26.49 280.67 26.49 280.67 19.66 285.93 19.66 285.93 38.05 280.67 38.05 280.67 29.85 274.89 29.85 274.89 38.05 269.56 38.05 269.56 38.05 269.56 38.05"/><path class="cls-3" d="M261.89,35.14V28.61c-2.24.29-5.54.68-5.54,3.88,0,3.93,4.22,3.2,5.54,2.65Zm-10.41-2.35a5.48,5.48,0,0,1,3.84-5.36,19.18,19.18,0,0,1,3.05-.83c.89-.16,2.06-.3,3.48-.5v-.58c.11-2.67-1.42-3.16-3.3-3.16a10.9,10.9,0,0,0-5,1.38l-.36-3.3a19.44,19.44,0,0,1,6.64-1.17,11,11,0,0,1,3.63.49,4.58,4.58,0,0,1,3.33,4,13,13,0,0,1,.07,1.87V37.11c-4.61,1.77-15.34,3-15.34-4.32Z"/><path class="cls-3" d="M243.57,34.52a2.51,2.51,0,0,1-2.17,1.06c-3.05,0-3.76-5-3.76-7.26a8,8,0,0,1,1.45-5.08,2.66,2.66,0,0,1,2.2-1,3,3,0,0,1,2.81,2.2,12.42,12.42,0,0,1,.78,4.69,9.34,9.34,0,0,1-1.31,5.37ZM250,24.71a8,8,0,0,0-2.31-3.77c-1.81-1.73-8.2-3.15-11.29,1.47,0-4.87,2.06-7.26,6.18-8s6.39-1.08,6.39-1.08l-.39-3.94s-4.23.59-7.71,1.39A10.58,10.58,0,0,0,232.56,20c-.61,3.58-.53,9.78.53,12.67,1.24,3.34,3.73,5.87,8.28,5.87,6.24,0,9.12-3.84,9.12-9.85a17.15,17.15,0,0,0-.53-3.94Z"/><polygon class="cls-3" points="288.98 38.05 288.98 19.66 294.24 19.66 294.24 28.12 300.13 19.66 305.32 19.66 299.31 27.88 305.92 38.05 300.06 38.05 294.24 28.91 294.24 38.05 288.98 38.05 288.98 38.05 288.98 38.05"/><path class="cls-3" d="M205.18,38.44a14.3,14.3,0,0,1-5-.73l.42-3.19a7.18,7.18,0,0,0,3.84,1.06c2.66,0,4.11-1.22,4.05-2.95a2.28,2.28,0,0,0-.82-1.92,3,3,0,0,0-1.85-.72c-.71,0-1.28-.11-1.77-.11h-1.28V27.13h.35c2,0,5-.09,5-2.61,0-1.95-2-2.4-3-2.4a9.08,9.08,0,0,0-4.48,1.17l-.28-3a15.64,15.64,0,0,1,5.89-1.05c4.26-.09,6.93,1.83,6.82,4.72.07,2.37-1.95,3.75-3.37,4.19A6.31,6.31,0,0,1,212,29a4.18,4.18,0,0,1,1.78,3.55,5.18,5.18,0,0,1-3.13,4.86,13.25,13.25,0,0,1-5.47,1Z"/><path class="cls-3" d="M157.85,38.44c-6.07,0-9.44-3.69-9.44-9.68s3.58-9.55,9.51-9.55a11.59,11.59,0,0,1,4.33.75l-.57,3.33a6.22,6.22,0,0,0-2.91-.78c-3.55,0-5.07,2.9-5.07,6.1s1.49,6.47,5.11,6.47a6,6,0,0,0,2.95-.72l.38,3.39a12.41,12.41,0,0,1-4.29.69Z"/><path class="cls-3" d="M216.05,38.05V19.66h5.22v5.8c1.1-.05,1.81-.05,2.09-.05,2.41,0,4.23.39,5.33,1.22a5.66,5.66,0,0,1,2.13,4.67c-.14,6-6.22,7.14-9.52,7.14a27.67,27.67,0,0,1-5.25-.39Zm5.22-3s4.75,1,4.75-3.53a3.16,3.16,0,0,0-.46-1.9c-.53-.94-1.74-1.1-3-1.1h-.74a2.4,2.4,0,0,0-.53.06v6.47Z"/><path class="cls-3" d="M170.14,27.33V22.26s.53-.05,1.84-.05c2.52,0,3,1.47,3,2.42,0,1.81-1.1,2.7-3.66,2.7Zm1.31,2.85c.5,0,1,0,1.67.06a2.71,2.71,0,0,1,1.67.64,2,2,0,0,1,.74,1.81c0,2-1.77,2.75-4.08,2.75-.64,0-1.31,0-1.31,0V30.18Zm5.22-1.92q3.3-1,3.3-4.17a4.3,4.3,0,0,0-.6-2.32,4.16,4.16,0,0,0-2-1.62,15.73,15.73,0,0,0-6-.94,38.6,38.6,0,0,0-6.32.45V38.05a46.93,46.93,0,0,0,6.32.39c3.7,0,9.31-.92,9.45-5.61v-.2c.11-2-1.17-4-4.12-4.37Z"/><path class="cls-3" d="M192.29,27.63H191c-2.52,0-3.55-.83-3.55-2.92s1.63-2.59,2.94-2.59a15.45,15.45,0,0,1,1.92.09v5.42Zm-1.17-8.42c-3.87,0-8.7.64-8.7,5.61a4.67,4.67,0,0,0,3.83,4.92l-4.93,8.31h5.47l3.94-7.34h1.56v7.34h5.19V19.66a40.08,40.08,0,0,0-6.36-.45Z"/><polygon class="cls-3" points="63.5 38.05 63.5 12.68 82.82 12.68 82.82 38.05 77.21 38.05 77.21 16.27 69.15 16.27 69.15 38.05 63.5 38.05 63.5 38.05 63.5 38.05"/><path class="cls-3" d="M97.81,28.21c0-6.88-4.8-6.28-6.58-5.85v12c.72.16,6.58,2.41,6.58-6.15ZM85.91,45.47V20.15c4.61-.94,17.11-3.53,17.11,7.67a11,11,0,0,1-2.3,7.26c-3,3.61-7.89,3.22-9.49,2.58v7.81Z"/><path class="cls-3" d="M114,35.55c1.52,0,2.56-1.25,3-2.86a16.5,16.5,0,0,0,.46-4.08,12,12,0,0,0-.71-4.43A3,3,0,0,0,114,22.12a3.29,3.29,0,0,0-3.09,2.59,12.19,12.19,0,0,0-.6,3.9c0,2.27.53,6.94,3.69,6.94Zm-.39,2.89c-6.08,0-8.7-3.83-8.7-9.59,0-6,3.12-9.64,9.23-9.64a8.53,8.53,0,0,1,5.26,1.5A6.61,6.61,0,0,1,122,24.38a14.11,14.11,0,0,1,.68,4.33c0,6.19-2.63,9.73-9,9.73Z"/><polygon class="cls-3" points="123.76 38.05 125.68 19.66 131.79 19.66 135.59 32.19 139.35 19.66 145.39 19.66 147.16 38.05 142.3 38.05 141.27 24.82 137.29 38.05 133.06 38.05 129.02 24.71 127.99 38.05 123.76 38.05 123.76 38.05 123.76 38.05"/></g></g></svg>