<svg xmlns="http://www.w3.org/2000/svg" viewBox="0 0 504.28 84.58"><defs><style>.cls-1{fill:#313d49;}.cls-2{fill:#02abca;}</style></defs><title>Ресурс 1</title><g id="Слой_2" data-name="Слой 2"><g id="Слой_1-2" data-name="Слой 1"><path class="cls-1" d="M486.19,3a62.29,62.29,0,0,0,13.69-3c-.05,5.53,0,11.05,0,16.58a14.43,14.43,0,0,1-5.56,2.78c-4.71,1.2-9.76.87-14.28,2.81a11.53,11.53,0,0,0-6.84,9.37A27.91,27.91,0,0,1,477,28.6c7.29-4.14,17.72-2.84,23,3.94,3.41,4.32,4.49,10,4.29,15.41a19,19,0,0,1-5.87,13.58c-4.68,4.43-11.28,6.21-17.58,6.4S468,66.88,463,63.05a22.37,22.37,0,0,1-7.79-12c-1.49-5.17-1.56-10.6-1.28-15.93.47-7.4,2.47-15.06,7.52-20.7C467.75,7.47,477.09,4.17,486.19,3Zm-9.28,36.8a5.41,5.41,0,0,0-3.62,4.48,8.93,8.93,0,0,0,1.14,6.36c2.36,3.15,8.19,2.75,9.77-1,1.06-2.66,1-6-.76-8.36-1.58-1.84-4.32-2.15-6.53-1.49ZM310.69,20.34a21.24,21.24,0,0,1,15.41,2,19.25,19.25,0,0,1,8.11,9.57,33.09,33.09,0,0,1,1.63,18.45c-1,5.11-3.36,10.18-7.5,13.5s-10,4.55-15.32,4a18.45,18.45,0,0,1-9.67-4.07c0,6.92,0,13.85,0,20.77-6.64,0-13.29,0-19.93,0q.07-31.68,0-63.36c5.27,0,10.53,0,15.8,0,.53,1.82,1.13,3.62,1.63,5.46a19,19,0,0,1,9.82-6.31ZM307.07,36a6.42,6.42,0,0,0-2.55,1.45c-.58.56-1.37,1.14-1.23,2,0,3.14-.06,6.28,0,9.41a6.9,6.9,0,0,0,9.57,2A8.36,8.36,0,0,0,316,44.25a9,9,0,0,0-2.61-7.1A6.76,6.76,0,0,0,307.07,36Zm36.24-14.8c6.64.05,13.27,0,19.91,0,0,5,0,10,0,15.06,3-.08,6.1,0,9.15,0-.05-5,0-9.95,0-14.92,6.64-.21,13.28,0,19.92-.11,0,15.08,0,30.17,0,45.25-6.64.09-13.29,0-19.93,0q0-7.48,0-15h-9.17c.06,5,0,10,.05,15-6.66,0-13.31,0-20,0q.07-22.65,0-45.28Zm57.11.09c5.59-.08,11.18,0,16.78,0a13.52,13.52,0,0,1,3.18.07c-.15,5,0,9.93-.07,14.89,1.19,0,2.38,0,3.57,0,2-5,4-10.07,6.09-15,6.43.17,12.86.08,19.29,0-2.39,6.69-5,13.31-7.46,20a5.3,5.3,0,0,0,.56,1.88c2.89,7.81,5.71,15.65,8.62,23.45-6.65,0-13.31.08-20-.06q-2.91-7.48-6-14.9c-1.57,0-3.15,0-4.73,0,.05,5,0,9.95.05,14.93-6.65.07-13.29,0-19.94,0q0-22.59,0-45.2Z"/><path class="cls-2" d="M21.85,12.33A2.31,2.31,0,0,1,22.93,12H266c-1.94,7-4.21,13.82-6.25,20.75C254.52,50,249.17,67.14,244,84.38q-122,0-244,0a22.31,22.31,0,0,1,.84-3.11q10.23-33.48,20.49-67a9.92,9.92,0,0,0,.52-1.94Z"/></g></g></svg>