<svg xmlns="http://www.w3.org/2000/svg" xmlns:xlink="http://www.w3.org/1999/xlink" viewBox="0 0 100.11 20.25"><defs><style>.cls-1{fill:#0a1244;}.cls-1,.cls-2,.cls-3,.cls-4,.cls-5{fill-rule:evenodd;}.cls-2{fill:url(#GradientFill_1);}.cls-3{fill:url(#GradientFill_1-2);}.cls-4{fill:#10c8d2;}.cls-5{fill:url(#GradientFill_1-3);}</style><linearGradient id="GradientFill_1" x1="11.36" y1="14.08" x2="1.48" y2="14.08" gradientUnits="userSpaceOnUse"><stop offset="0" stop-color="#c8e6e8"/><stop offset="1" stop-color="#43bbc2"/></linearGradient><linearGradient id="GradientFill_1-2" x1="9.88" y1="9.75" x2="5.43" y2="9.75" xlink:href="#GradientFill_1"/><linearGradient id="GradientFill_1-3" x1="8.39" y1="3" x2="5.92" y2="3" xlink:href="#GradientFill_1"/></defs><title>Ресурс 1</title><g id="Слой_2" data-name="Слой 2"><g id="_1" data-name="1"><path class="cls-1" d="M25.61,12.2h-.52a2.23,2.23,0,0,0-.37-.91,1,1,0,0,0-.23-.22.84.84,0,0,0-.27-.13,1.27,1.27,0,0,0-.34,0H22.07v2.71h.49l.8,0a6.43,6.43,0,0,1,.8.11,4,4,0,0,1,.74.23,2,2,0,0,1,.61.38,1.74,1.74,0,0,1,.41.58,2,2,0,0,1,.15.81,1.85,1.85,0,0,1-.56,1.33,2.31,2.31,0,0,1-.58.4,2.58,2.58,0,0,1-.7.22,9.15,9.15,0,0,1-1.48.13c-1.11,0-2.21,0-3.32-.07v-.52a3.55,3.55,0,0,0,.57-.06.63.63,0,0,0,.32-.15.42.42,0,0,0,.14-.27,2.13,2.13,0,0,0,0-.39v-4.7a2.35,2.35,0,0,0,0-.4.45.45,0,0,0-.14-.27.86.86,0,0,0-.32-.15,3.68,3.68,0,0,0-.57-.06v-.5h6.12l.06,1.93Zm-1.23,3.51a1.9,1.9,0,0,0-.13-.77,1.07,1.07,0,0,0-.36-.46,1.41,1.41,0,0,0-.57-.22,4.74,4.74,0,0,0-.75-.06h-.5v2.87a1.07,1.07,0,0,0,.27.09,1.22,1.22,0,0,0,.37,0,2.23,2.23,0,0,0,.65-.08,1.45,1.45,0,0,0,.53-.25,1.27,1.27,0,0,0,.36-.46,1.62,1.62,0,0,0,.13-.7Zm10.15,2H31V17.2a2.48,2.48,0,0,0,.65-.06.28.28,0,0,0,.2-.3.86.86,0,0,0-.07-.34l-.35-.87H29l-.18.48a2,2,0,0,0-.15.58c0,.23.08.37.25.42a1.8,1.8,0,0,0,.6.09v.51H27V17.2a1.17,1.17,0,0,0,.52-.11,1.26,1.26,0,0,0,.41-.44,5.87,5.87,0,0,0,.41-.91l2.15-5.61H31l2.27,5.79a7.59,7.59,0,0,0,.36.83.87.87,0,0,0,.32.34,1.22,1.22,0,0,0,.57.11v.51Zm-3.27-2.62-1-2.59-1,2.59Zm12.83,2.62H40.43V17.2a1.71,1.71,0,0,0,.68-.1.47.47,0,0,0,.3-.28,1.67,1.67,0,0,0,.07-.5V14.09H38v2.23a.94.94,0,0,0,.19.67,1.25,1.25,0,0,0,.88.21v.51H35.41V17.2a1.74,1.74,0,0,0,.68-.1.52.52,0,0,0,.3-.28,1.62,1.62,0,0,0,.07-.5V11.65a1.3,1.3,0,0,0-.07-.49.47.47,0,0,0-.29-.28,1.7,1.7,0,0,0-.69-.11v-.5H39.1v.5a1.25,1.25,0,0,0-.88.21.94.94,0,0,0-.19.67v1.83h3.45V11.65a1.3,1.3,0,0,0-.07-.49.43.43,0,0,0-.28-.28,1.72,1.72,0,0,0-.7-.11v-.5h3.66v.5a1.7,1.7,0,0,0-.69.11.5.5,0,0,0-.29.28,1.59,1.59,0,0,0-.06.49v4.67a1.63,1.63,0,0,0,.06.49.47.47,0,0,0,.29.28,1.7,1.7,0,0,0,.69.11v.51Zm9.11,0h-2c-.18-.23-.35-.46-.51-.7s-.3-.46-.44-.7l-.42-.69c-.13-.24-.28-.46-.43-.69a1.76,1.76,0,0,0-.24-.3.62.62,0,0,0-.28-.17,1.55,1.55,0,0,0-.43-.07h-.68v1.94a1.62,1.62,0,0,0,0,.41A.57.57,0,0,0,48,17a.85.85,0,0,0,.33.16,2.7,2.7,0,0,0,.54,0v.51H45.14V17.2a2.79,2.79,0,0,0,.57-.05A.74.74,0,0,0,46,17a.45.45,0,0,0,.14-.27,2.15,2.15,0,0,0,0-.4V11.65a2.41,2.41,0,0,0,0-.4A.51.51,0,0,0,46,11a.63.63,0,0,0-.32-.15,2.25,2.25,0,0,0-.58-.07v-.5h3.72v.5A1.32,1.32,0,0,0,48,11a.91.91,0,0,0-.2.68v2a.69.69,0,0,0,.22,0,1.74,1.74,0,0,0,.32-.19A3.74,3.74,0,0,0,48.8,13l.68-.71.42-.49.3-.37c.09-.11.18-.22.28-.32a4.08,4.08,0,0,1,.36-.35,3.84,3.84,0,0,1,.34-.28,1.54,1.54,0,0,1,.34-.17,1.33,1.33,0,0,1,.34-.1,1.58,1.58,0,0,1,.38,0,.68.68,0,0,1,.21,0,.49.49,0,0,1,.18.08.41.41,0,0,1,.12.14.29.29,0,0,1,0,.19.67.67,0,0,1-.08.3.53.53,0,0,1-.29.22,3.17,3.17,0,0,1-.49.12,2.2,2.2,0,0,0-.41.12l-.21.08a2,2,0,0,0-.25.13,3.19,3.19,0,0,0-.54.43,3.77,3.77,0,0,0-.3.34,11.43,11.43,0,0,1-.91.93,5.08,5.08,0,0,1-.57.47H49a3.32,3.32,0,0,1,.57,0,1.9,1.9,0,0,1,.48.14,1.86,1.86,0,0,1,.43.28,3.41,3.41,0,0,1,.41.48c.24.35.47.7.7,1s.48.7.74,1a1.32,1.32,0,0,0,.42.36l.24.08a.91.91,0,0,0,.23,0v.51Zm10.88-2.56a2.05,2.05,0,0,1-.33,1.14,2.73,2.73,0,0,1-.88.84,4.51,4.51,0,0,1-1.31.53,6.11,6.11,0,0,1-1.59.18,6,6,0,0,1-1.07-.08,4,4,0,0,1-.84-.24,1.69,1.69,0,0,1-.56-.36.72.72,0,0,1-.2-.48.57.57,0,0,1,.18-.44.82.82,0,0,1,.55-.16.84.84,0,0,1,.53.16,2,2,0,0,1,.44.49.87.87,0,0,0,.21.25.7.7,0,0,0,.24.13.88.88,0,0,0,.29.07h.33a3.79,3.79,0,0,0,.93-.1,1.93,1.93,0,0,0,.71-.32,1.37,1.37,0,0,0,.44-.54,1.88,1.88,0,0,0,.16-.79,2.46,2.46,0,0,0-.1-.7,1.38,1.38,0,0,0-.25-.5,1,1,0,0,0-.39-.3,1.21,1.21,0,0,0-.88,0,1.69,1.69,0,0,0-.41.19,2.9,2.9,0,0,1-.38.2.55.55,0,0,1-.24.07.5.5,0,0,1-.27-.07.24.24,0,0,1-.11-.2.28.28,0,0,1,.11-.23,1.25,1.25,0,0,1,.34-.21l.81-.41.55-.3.46-.29a1.74,1.74,0,0,0,.35-.29,1,1,0,0,0,.22-.31.75.75,0,0,0,.08-.37.94.94,0,0,0-.08-.43.64.64,0,0,0-.25-.29,1.3,1.3,0,0,0-.46-.18,3.12,3.12,0,0,0-.69,0,3.49,3.49,0,0,0-.65.06,2,2,0,0,0-.53.16,1,1,0,0,0-.37.23.44.44,0,0,0-.13.31.36.36,0,0,0,.05.19l.13.13.13.13a.29.29,0,0,1,.06.19.37.37,0,0,1-.07.25.74.74,0,0,1-.2.16,1.11,1.11,0,0,1-.26.07l-.26,0a1.12,1.12,0,0,1-.44-.08.9.9,0,0,1-.27-.2.82.82,0,0,1-.14-.28,1.26,1.26,0,0,1,0-.27.9.9,0,0,1,.07-.34,1.24,1.24,0,0,1,.21-.36,2.31,2.31,0,0,1,.39-.36,2.43,2.43,0,0,1,.58-.31,4.7,4.7,0,0,1,.79-.22,6.38,6.38,0,0,1,1-.08,5.6,5.6,0,0,1,2.23.34,1.12,1.12,0,0,1,.76,1.06,1,1,0,0,1-.15.54,1.47,1.47,0,0,1-.41.46,3.33,3.33,0,0,1-.63.39c-.24.12-.51.23-.8.34a3.92,3.92,0,0,1,.94.08,1.61,1.61,0,0,1,.71.33,1.42,1.42,0,0,1,.46.59,2.13,2.13,0,0,1,.16.88Zm8,.11L72,17.71H65.35V17.2c.46,0,.75-.06.88-.2a1,1,0,0,0,.2-.68V11.65a1.66,1.66,0,0,0-.06-.5.51.51,0,0,0-.3-.27,1.83,1.83,0,0,0-.72-.11v-.5h6.17l.1,1.93h-.51a2.44,2.44,0,0,0-.39-.92.86.86,0,0,0-.5-.34,4.2,4.2,0,0,0-.83-.06H68V13.5h.75a1.74,1.74,0,0,0,.59-.07.4.4,0,0,0,.26-.25,1.9,1.9,0,0,0,.11-.61h.52v2.48h-.5a1.9,1.9,0,0,0-.11-.61.45.45,0,0,0-.28-.26,1.89,1.89,0,0,0-.57-.07H68v1.75a5.19,5.19,0,0,0,0,.64.69.69,0,0,0,.12.34.54.54,0,0,0,.31.2,2.43,2.43,0,0,0,.62.06h.59a2.48,2.48,0,0,0,.73-.1,1.44,1.44,0,0,0,.67-.49,2.62,2.62,0,0,0,.46-1.25Zm9.87,2.45H78.25V17.2a1.68,1.68,0,0,0,.68-.1.47.47,0,0,0,.3-.28,1.67,1.67,0,0,0,.07-.5V14.09H75.85v2.23A.94.94,0,0,0,76,17a1.25,1.25,0,0,0,.88.21v.51H73.23V17.2a1.74,1.74,0,0,0,.68-.1.52.52,0,0,0,.3-.28,1.62,1.62,0,0,0,.07-.5V11.65a1.3,1.3,0,0,0-.07-.49.47.47,0,0,0-.29-.28,1.7,1.7,0,0,0-.69-.11v-.5h3.69v.5A1.25,1.25,0,0,0,76,11a.94.94,0,0,0-.19.67v1.83H79.3V11.65a1.59,1.59,0,0,0-.06-.49.5.5,0,0,0-.29-.28,1.72,1.72,0,0,0-.7-.11v-.5h3.66v.5a1.7,1.7,0,0,0-.69.11.5.5,0,0,0-.29.28,1.59,1.59,0,0,0-.06.49v4.67a1.63,1.63,0,0,0,.06.49.51.51,0,0,0,.28.28,1.79,1.79,0,0,0,.7.11v.51Zm9.75,0H88V17.2a2.64,2.64,0,0,0,.55-.05.59.59,0,0,0,.31-.17.46.46,0,0,0,.15-.27,2.13,2.13,0,0,0,0-.39V12.41l-3.45,4a1.1,1.1,0,0,0,.06.35.5.5,0,0,0,.15.25,1.06,1.06,0,0,0,.32.14,2.64,2.64,0,0,0,.54,0v.51H83V17.2a2.64,2.64,0,0,0,.55-.05.74.74,0,0,0,.32-.16.49.49,0,0,0,.15-.27,2.25,2.25,0,0,0,0-.4V11.65a2.21,2.21,0,0,0,0-.39.51.51,0,0,0-.14-.26.58.58,0,0,0-.31-.16,2.22,2.22,0,0,0-.57-.07v-.5h3.69v.5a1.25,1.25,0,0,0-.88.21.94.94,0,0,0-.19.67V15.5l3.44-4a1,1,0,0,0-.05-.3.48.48,0,0,0-.15-.22.66.66,0,0,0-.31-.13,2.31,2.31,0,0,0-.52-.06v-.5h3.65v.5a2.57,2.57,0,0,0-.56.07.58.58,0,0,0-.31.16.43.43,0,0,0-.13.26,2.56,2.56,0,0,0,0,.39v4.67a2.12,2.12,0,0,0,0,.37.43.43,0,0,0,.13.27.62.62,0,0,0,.31.18,2.16,2.16,0,0,0,.57.06v.51Zm8.45-5.33h-.52a2.16,2.16,0,0,0-.31-1,1,1,0,0,0-.5-.41,2.56,2.56,0,0,0-.62-.07h-.94v5.44a1.39,1.39,0,0,0,.07.51.52.52,0,0,0,.3.28,2.15,2.15,0,0,0,.71.09v.51H94.57V17.2c.46,0,.75-.06.88-.2a1,1,0,0,0,.2-.68V10.88h-.79a3.31,3.31,0,0,0-.77.07.92.92,0,0,0-.54.41,1.89,1.89,0,0,0-.27,1h-.52V10.27h7.35Z"/><path class="cls-2" d="M1.48,17.09q7.53-3,9.88-7.71v9.39H1.48A11.21,11.21,0,0,0,1.48,17.09Z"/><path class="cls-3" d="M5.43,5.43A7,7,0,0,0,9.88,7.28V9.75a10.65,10.65,0,0,1-4.45,4.32C5.44,12,5.43,7.65,5.43,5.43Z"/><polygon class="cls-4" points="12.34 7.9 11.02 7.9 11.02 7.41 12.84 7.41 12.84 20.25 0 20.25 0 7.41 4.3 7.41 4.3 7.9 0.49 7.9 0.49 19.75 12.34 19.75 12.34 7.9"/><path class="cls-5" d="M5.93,0A5.79,5.79,0,0,0,8.39,2.06c0,1.54,0,2.92,0,4A3.07,3.07,0,0,1,5.93,4.4Z"/></g></g></svg>